<?xml version="1.0" encoding="utf-8"?>
<!-- Generator: Adobe Illustrator 27.1.0, SVG Export Plug-In . SVG Version: 6.00 Build 0)  -->
<svg version="1.1" xmlns="http://www.w3.org/2000/svg" xmlns:xlink="http://www.w3.org/1999/xlink" x="0px" y="0px"
	 viewBox="0 0 1080 332.7" style="enable-background:new 0 0 1080 332.7;" xml:space="preserve">
<style type="text/css">
	.st0{fill:#48C9B0;}
	.st1{fill:#17202A;}
	.st2{fill:#76D7C4;}
	.st3{fill:#75FF33;}
	.st4{fill:#F1948A;}
	.st5{fill:#DAF7A6;}
</style>
<g id="Layer_1">
</g>
<g id="Layer_2">
	<g>
		<polygon class="st0" points="-466.1,-346.6 -651,-346.6 -651,593.9 -466.1,579.7 		"/>
		<polygon class="st0" points="-317.5,-346.6 -132.6,-346.6 -132.6,593.9 -317.5,579.7 		"/>
		<g>
			
				<image style="overflow:visible;opacity:0.8;" width="1144" height="2023" xlink:href="92900B50.png"  transform="matrix(0.48 0 0 0.48 -666.36 -361.7711)">
			</image>
			<g>
				<polygon class="st0" points="-463.9,-346.6 -651,-346.6 -323.2,579.7 -132.6,593.9 				"/>
			</g>
		</g>
	</g>
	<g>
		<path d="M563.1,166.1c-0.1-0.1-0.2-0.2-0.3-0.3c-0.1-0.1-0.2-0.2-0.3-0.3c-0.1-0.1-0.2-0.2-0.3-0.3c-0.1-0.1-0.2-0.2-0.3-0.3
			c-0.1-0.1-0.2-0.2-0.3-0.3c-0.1-0.1-0.2-0.2-0.3-0.3c-0.1-0.1-0.2-0.2-0.3-0.3c-0.1-0.1-0.2-0.2-0.3-0.3c-0.1-0.1-0.2-0.2-0.3-0.3
			c-0.1-0.1-0.2-0.2-0.3-0.3c-0.1-0.1-0.2-0.2-0.3-0.3c-0.1-0.1-0.2-0.2-0.3-0.3c-0.1-0.1-0.2-0.2-0.3-0.3c-0.1-0.1-0.2-0.2-0.3-0.3
			c-0.1-0.1-0.2-0.2-0.3-0.3c-0.1-0.1-0.2-0.2-0.3-0.3c-0.1-0.1-0.2-0.2-0.3-0.3c-0.1-0.1-0.2-0.2-0.3-0.3c-0.1-0.1-0.2-0.2-0.3-0.3
			c-0.1-0.1-0.2-0.2-0.3-0.3c-0.1-0.1-0.2-0.2-0.3-0.3c-0.1-0.1-0.2-0.2-0.3-0.3c-0.1-0.1-0.2-0.2-0.3-0.3c-0.1-0.1-0.2-0.2-0.3-0.3
			c-0.1-0.1-0.2-0.2-0.3-0.3c-0.1-0.1-0.2-0.2-0.3-0.3c-0.1-0.1-0.2-0.2-0.3-0.3c-0.1-0.1-0.2-0.2-0.3-0.3c-0.1-0.1-0.2-0.2-0.3-0.3
			c-0.1-0.1-0.2-0.2-0.3-0.3c-0.1-0.1-0.2-0.2-0.3-0.3c-0.1-0.1-0.2-0.2-0.3-0.3c-0.1-0.1-0.2-0.2-0.3-0.3c-0.1-0.1-0.2-0.2-0.3-0.3
			c-0.1-0.1-0.2-0.2-0.3-0.3c-0.1-0.1-0.2-0.2-0.3-0.3c-0.1-0.1-0.2-0.2-0.3-0.3c-0.1-0.1-0.2-0.2-0.3-0.3c-0.1-0.1-0.2-0.2-0.3-0.3
			c-0.1-0.1-0.2-0.2-0.3-0.3c-0.1-0.1-0.2-0.2-0.3-0.3c-0.1-0.1-0.2-0.2-0.3-0.3c-0.1-0.1-0.2-0.2-0.3-0.3c-0.1-0.1-0.2-0.2-0.3-0.3
			c-0.1-0.1-0.2-0.2-0.3-0.3c-0.1-0.1-0.2-0.2-0.3-0.3c-0.1-0.1-0.2-0.2-0.3-0.3c-0.1-0.1-0.2-0.2-0.3-0.3c-0.1-0.1-0.2-0.2-0.3-0.3
			c-0.1-0.1-0.2-0.2-0.3-0.3c-6.7-6.8-15.5-14-26.5-21.7c-5.7-4-10.7-7.7-15-11.2c-3.9-5.9-5.8-12.1-5.8-18.8
			c0-13.6,6.9-20.4,20.8-20.4c1.9,0,3.7,0.1,5.3,0.4c0.2,1.5,0.3,3.1,0.3,4.9c0,3.6,0,7.3,0,10.9c0.1,0,0.2,0,0.3,0
			c0,0.1,0,0.2,0,0.3c0.1,0,0.2,0,0.3,0c0,0.1,0,0.2,0,0.3c0.1,0,0.2,0,0.3,0c0,0.1,0,0.2,0,0.3c0.1,0,0.2,0,0.3,0
			c0,0.1,0,0.2,0,0.3c0.1,0,0.2,0,0.3,0c0,0.1,0,0.2,0,0.3c0.1,0,0.2,0,0.3,0c0,0.1,0,0.2,0,0.3c0.1,0,0.2,0,0.3,0
			c0,0.1,0,0.2,0,0.3c0.1,0,0.2,0,0.3,0c0,0.1,0,0.2,0,0.3c0.1,0,0.2,0,0.3,0c0,0.1,0,0.2,0,0.3c0.1,0,0.2,0,0.3,0
			c0,0.1,0,0.2,0,0.3c0.1,0,0.2,0,0.3,0c0,0.1,0,0.2,0,0.3c0.1,0,0.2,0,0.3,0c0,0.1,0,0.2,0,0.3c0.1,0,0.2,0,0.3,0
			c0,0.1,0,0.2,0,0.3c0.1,0,0.2,0,0.3,0c0,0.1,0,0.2,0,0.3c0.1,0,0.2,0,0.3,0c0,0.1,0,0.2,0,0.3c0.1,0,0.2,0,0.3,0
			c0,0.1,0,0.2,0,0.3c0.1,0,0.2,0,0.3,0c0,0.1,0,0.2,0,0.3c0.1,0,0.2,0,0.3,0c0,0.1,0,0.2,0,0.3c0.1,0,0.2,0,0.3,0
			c0,0.1,0,0.2,0,0.3c0.1,0,0.2,0,0.3,0c0,0.1,0,0.2,0,0.3c0.1,0,0.2,0,0.3,0c0,0.1,0,0.2,0,0.3c0.1,0,0.2,0,0.3,0
			c0,0.1,0,0.2,0,0.3c0.1,0,0.2,0,0.3,0c0,0.1,0,0.2,0,0.3c0.1,0,0.2,0,0.3,0c0,0.1,0,0.2,0,0.3c0.1,0,0.2,0,0.3,0
			c0,0.1,0,0.2,0,0.3c0.1,0,0.2,0,0.3,0c0,0.1,0,0.2,0,0.3c0.1,0,0.2,0,0.3,0c0,0.1,0,0.2,0,0.3c0.1,0,0.2,0,0.3,0
			c0,0.1,0,0.2,0,0.3c0.1,0,0.2,0,0.3,0c0,0.1,0,0.2,0,0.3c0.1,0,0.2,0,0.3,0c0,0.1,0,0.2,0,0.3c0.1,0,0.2,0,0.3,0
			c0,0.1,0,0.2,0,0.3c0.1,0,0.2,0,0.3,0c0,0.1,0,0.2,0,0.3c0.1,0,0.2,0,0.3,0c0,0.1,0,0.2,0,0.3c0.1,0,0.2,0,0.3,0
			c0,0.1,0,0.2,0,0.3c0.1,0,0.2,0,0.3,0c0,0.1,0,0.2,0,0.3c0.1,0,0.2,0,0.3,0c0,0.1,0,0.2,0,0.3c0.1,0,0.2,0,0.3,0
			c0,0.1,0,0.2,0,0.3c0.1,0,0.2,0,0.3,0c0,0.1,0,0.2,0,0.3c0.1,0,0.2,0,0.3,0c0,0.1,0,0.2,0,0.3c0.1,0,0.2,0,0.3,0
			c0,0.1,0,0.2,0,0.3c0.1,0,0.2,0,0.3,0c0,0.1,0,0.2,0,0.3c0.1,0,0.2,0,0.3,0c0,0.1,0,0.2,0,0.3c0.1,0,0.2,0,0.3,0
			c0,0.1,0,0.2,0,0.3c0.1,0,0.2,0,0.3,0c0,0.1,0,0.2,0,0.3c0.1,0,0.2,0,0.3,0c0,0.1,0,0.2,0,0.3c0.1,0,0.2,0,0.3,0
			c0,0.1,0,0.2,0,0.3c0.1,0,0.2,0,0.3,0c0,0.1,0,0.2,0,0.3c0.1,0,0.2,0,0.3,0c0,0.1,0,0.2,0,0.3c0.1,0,0.2,0,0.3,0
			c0,0.1,0,0.2,0,0.3c0.1,0,0.2,0,0.3,0c0,0.1,0,0.2,0,0.3c0.1,0,0.2,0,0.3,0c0,0.1,0,0.2,0,0.3c13.1,0,26.2,0,39.2,0
			c0-2.9,0-5.9,0-8.8c0-16.2-4.5-28.8-13.5-37.9c-0.1-0.1-0.2-0.2-0.3-0.3c-0.1-0.1-0.2-0.2-0.3-0.3c-0.1-0.1-0.2-0.2-0.3-0.3
			c-0.1-0.1-0.2-0.2-0.3-0.3c-0.1-0.1-0.2-0.2-0.3-0.3c-0.1-0.1-0.2-0.2-0.3-0.3c-0.1-0.1-0.2-0.2-0.3-0.3c-0.1-0.1-0.2-0.2-0.3-0.3
			c-0.1-0.1-0.2-0.2-0.3-0.3c-0.1-0.1-0.2-0.2-0.3-0.3c-0.1-0.1-0.2-0.2-0.3-0.3c-0.1-0.1-0.2-0.2-0.3-0.3c-0.1-0.1-0.2-0.2-0.3-0.3
			c-0.1-0.1-0.2-0.2-0.3-0.3c-0.1-0.1-0.2-0.2-0.3-0.3c-0.1-0.1-0.2-0.2-0.3-0.3c-0.1-0.1-0.2-0.2-0.3-0.3c-0.1-0.1-0.2-0.2-0.3-0.3
			c-0.1-0.1-0.2-0.2-0.3-0.3c-0.1-0.1-0.2-0.2-0.3-0.3c-0.1-0.1-0.2-0.2-0.3-0.3c-0.1-0.1-0.2-0.2-0.3-0.3c-0.1-0.1-0.2-0.2-0.3-0.3
			c-0.1-0.1-0.2-0.2-0.3-0.3c-0.1-0.1-0.2-0.2-0.3-0.3c-0.1-0.1-0.2-0.2-0.3-0.3c-0.1-0.1-0.2-0.2-0.3-0.3c-0.1-0.1-0.2-0.2-0.3-0.3
			c-0.1-0.1-0.2-0.2-0.3-0.3c-0.1-0.1-0.2-0.2-0.3-0.3c-0.1-0.1-0.2-0.2-0.3-0.3c-0.1-0.1-0.2-0.2-0.3-0.3c-0.1-0.1-0.2-0.2-0.3-0.3
			c-0.1-0.1-0.2-0.2-0.3-0.3c-0.1-0.1-0.2-0.2-0.3-0.3c-0.1-0.1-0.2-0.2-0.3-0.3c-0.1-0.1-0.2-0.2-0.3-0.3c-0.1-0.1-0.2-0.2-0.3-0.3
			c-0.1-0.1-0.2-0.2-0.3-0.3c-0.1-0.1-0.2-0.2-0.3-0.3c-0.1-0.1-0.2-0.2-0.3-0.3c-0.1-0.1-0.2-0.2-0.3-0.3c-0.1-0.1-0.2-0.2-0.3-0.3
			c-0.1-0.1-0.2-0.2-0.3-0.3c-0.1-0.1-0.2-0.2-0.3-0.3c-0.1-0.1-0.2-0.2-0.3-0.3c-0.1-0.1-0.2-0.2-0.3-0.3c-0.1-0.1-0.2-0.2-0.3-0.3
			c-0.1-0.1-0.2-0.2-0.3-0.3c-0.1-0.1-0.2-0.2-0.3-0.3c-0.7-0.7-1.3-1.3-2-2c-10.2-9.2-25.2-13.8-45-13.8c-20.1,0-35.4,4.6-46,13.9
			c-10.6,9.3-15.9,22.4-15.9,39.3c0,12.4,3.3,23.6,10.1,33.3c1.8,2.5,3.9,5.1,6.3,7.8c0.7,0.7,1.3,1.5,2.1,2.2
			c0.1,0.1,0.2,0.2,0.3,0.3c0.1,0.1,0.2,0.2,0.3,0.3c0.1,0.1,0.2,0.2,0.3,0.3c0.1,0.1,0.2,0.2,0.3,0.3c0.1,0.1,0.2,0.2,0.3,0.3
			c0.1,0.1,0.2,0.2,0.3,0.3c0.1,0.1,0.2,0.2,0.3,0.3c0.1,0.1,0.2,0.2,0.3,0.3c0.1,0.1,0.2,0.2,0.3,0.3c0.1,0.1,0.2,0.2,0.3,0.3
			c0.1,0.1,0.2,0.2,0.3,0.3c0.1,0.1,0.2,0.2,0.3,0.3c0.1,0.1,0.2,0.2,0.3,0.3c0.1,0.1,0.2,0.2,0.3,0.3c0.1,0.1,0.2,0.2,0.3,0.3
			c0.1,0.1,0.2,0.2,0.3,0.3c0.1,0.1,0.2,0.2,0.3,0.3c0.1,0.1,0.2,0.2,0.3,0.3c0.1,0.1,0.2,0.2,0.3,0.3c0.1,0.1,0.2,0.2,0.3,0.3
			c0.1,0.1,0.2,0.2,0.3,0.3c0.1,0.1,0.2,0.2,0.3,0.3c0.1,0.1,0.2,0.2,0.3,0.3c0.1,0.1,0.2,0.2,0.3,0.3c0.1,0.1,0.2,0.2,0.3,0.3
			c0.1,0.1,0.2,0.2,0.3,0.3c0.1,0.1,0.2,0.2,0.3,0.3c0.1,0.1,0.2,0.2,0.3,0.3c0.1,0.1,0.2,0.2,0.3,0.3c0.1,0.1,0.2,0.2,0.3,0.3
			c0.1,0.1,0.2,0.2,0.3,0.3c0.1,0.1,0.2,0.2,0.3,0.3c0.1,0.1,0.2,0.2,0.3,0.3c0.1,0.1,0.2,0.2,0.3,0.3c0.1,0.1,0.2,0.2,0.3,0.3
			c0.1,0.1,0.2,0.2,0.3,0.3c0.1,0.1,0.2,0.2,0.3,0.3c0.1,0.1,0.2,0.2,0.3,0.3c0.1,0.1,0.2,0.2,0.3,0.3c0.1,0.1,0.2,0.2,0.3,0.3
			c0.1,0.1,0.2,0.2,0.3,0.3c0.1,0.1,0.2,0.2,0.3,0.3c0.1,0.1,0.2,0.2,0.3,0.3c0.1,0.1,0.2,0.2,0.3,0.3c0.1,0.1,0.2,0.2,0.3,0.3
			c0.1,0.1,0.2,0.2,0.3,0.3c0.1,0.1,0.2,0.2,0.3,0.3c0.1,0.1,0.2,0.2,0.3,0.3c1.3,1.4,2.8,2.8,4.3,4.3c0.6,0.5,1.2,1.1,1.8,1.6
			c0.1,0.1,0.1,0.1,0.2,0.2c6,5.5,13.4,11.3,22.1,17.4c5.5,3.8,10.3,7.4,14.3,10.7c4,6.3,6.1,13.4,6.1,21.3c0,7.5-1.8,12.9-5.5,16.3
			c-3.7,3.4-9,5.1-16.1,5.2c-2.2,0-4.3-0.1-6.2-0.4c-0.2-1.3-0.3-2.8-0.3-4.3c0-4.9,0-9.7,0-14.6c-0.1,0-0.2,0-0.3,0
			c0-0.1,0-0.2,0-0.3c-0.1,0-0.2,0-0.3,0c0-0.1,0-0.2,0-0.3c-0.1,0-0.2,0-0.3,0c0-0.1,0-0.2,0-0.3c-0.1,0-0.2,0-0.3,0
			c0-0.1,0-0.2,0-0.3c-0.1,0-0.2,0-0.3,0c0-0.1,0-0.2,0-0.3c-0.1,0-0.2,0-0.3,0c0-0.1,0-0.2,0-0.3c-0.1,0-0.2,0-0.3,0
			c0-0.1,0-0.2,0-0.3c-0.1,0-0.2,0-0.3,0c0-0.1,0-0.2,0-0.3c-0.1,0-0.2,0-0.3,0c0-0.1,0-0.2,0-0.3c-0.1,0-0.2,0-0.3,0
			c0-0.1,0-0.2,0-0.3c-0.1,0-0.2,0-0.3,0c0-0.1,0-0.2,0-0.3c-0.1,0-0.2,0-0.3,0c0-0.1,0-0.2,0-0.3c-0.1,0-0.2,0-0.3,0
			c0-0.1,0-0.2,0-0.3c-0.1,0-0.2,0-0.3,0c0-0.1,0-0.2,0-0.3c-0.1,0-0.2,0-0.3,0c0-0.1,0-0.2,0-0.3c-0.1,0-0.2,0-0.3,0
			c0-0.1,0-0.2,0-0.3c-0.1,0-0.2,0-0.3,0c0-0.1,0-0.2,0-0.3c-0.1,0-0.2,0-0.3,0c0-0.1,0-0.2,0-0.3c-0.1,0-0.2,0-0.3,0
			c0-0.1,0-0.2,0-0.3c-0.1,0-0.2,0-0.3,0c0-0.1,0-0.2,0-0.3c-0.1,0-0.2,0-0.3,0c0-0.1,0-0.2,0-0.3c-0.1,0-0.2,0-0.3,0
			c0-0.1,0-0.2,0-0.3c-0.1,0-0.2,0-0.3,0c0-0.1,0-0.2,0-0.3c-0.1,0-0.2,0-0.3,0c0-0.1,0-0.2,0-0.3c-0.1,0-0.2,0-0.3,0
			c0-0.1,0-0.2,0-0.3c-0.1,0-0.2,0-0.3,0c0-0.1,0-0.2,0-0.3c-0.1,0-0.2,0-0.3,0c0-0.1,0-0.2,0-0.3c-0.1,0-0.2,0-0.3,0
			c0-0.1,0-0.2,0-0.3c-0.1,0-0.2,0-0.3,0c0-0.1,0-0.2,0-0.3c-0.1,0-0.2,0-0.3,0c0-0.1,0-0.2,0-0.3c-0.1,0-0.2,0-0.3,0
			c0-0.1,0-0.2,0-0.3c-0.1,0-0.2,0-0.3,0c0-0.1,0-0.2,0-0.3c-0.1,0-0.2,0-0.3,0c0-0.1,0-0.2,0-0.3c-0.1,0-0.2,0-0.3,0
			c0-0.1,0-0.2,0-0.3c-0.1,0-0.2,0-0.3,0c0-0.1,0-0.2,0-0.3c-0.1,0-0.2,0-0.3,0c0-0.1,0-0.2,0-0.3c-0.1,0-0.2,0-0.3,0
			c0-0.1,0-0.2,0-0.3c-0.1,0-0.2,0-0.3,0c0-0.1,0-0.2,0-0.3c-0.1,0-0.2,0-0.3,0c0-0.1,0-0.2,0-0.3c-0.1,0-0.2,0-0.3,0
			c0-0.1,0-0.2,0-0.3c-0.1,0-0.2,0-0.3,0c0-0.1,0-0.2,0-0.3c-0.1,0-0.2,0-0.3,0c0-0.1,0-0.2,0-0.3c-0.1,0-0.2,0-0.3,0
			c0-0.1,0-0.2,0-0.3c-0.1,0-0.2,0-0.3,0c0-0.1,0-0.2,0-0.3c-0.1,0-0.2,0-0.3,0c0-0.1,0-0.2,0-0.3c-0.1,0-0.2,0-0.3,0
			c0-0.1,0-0.2,0-0.3c-0.1,0-0.2,0-0.3,0c0-0.1,0-0.2,0-0.3c-0.1,0-0.2,0-0.3,0c0-0.1,0-0.2,0-0.3c-0.1,0-0.2,0-0.3,0
			c0-0.1,0-0.2,0-0.3c-0.1,0-0.2,0-0.3,0c0-0.1,0-0.2,0-0.3c-0.1,0-0.2,0-0.3,0c0-0.1,0-0.2,0-0.3c-13.1,0.2-26.2,0.5-39.3,0.8
			c0,4.1,0,8.2,0,12.2c0,16.3,4.5,28.8,13.6,37.7c0.1,0.1,0.2,0.2,0.3,0.3c0.1,0.1,0.2,0.2,0.3,0.3c0.1,0.1,0.2,0.2,0.3,0.3
			c0.1,0.1,0.2,0.2,0.3,0.3c0.1,0.1,0.2,0.2,0.3,0.3c0.1,0.1,0.2,0.2,0.3,0.3c0.1,0.1,0.2,0.2,0.3,0.3c0.1,0.1,0.2,0.2,0.3,0.3
			c0.1,0.1,0.2,0.2,0.3,0.3c0.1,0.1,0.2,0.2,0.3,0.3c0.1,0.1,0.2,0.2,0.3,0.3c0.1,0.1,0.2,0.2,0.3,0.3c0.1,0.1,0.2,0.2,0.3,0.3
			c0.1,0.1,0.2,0.2,0.3,0.3c0.1,0.1,0.2,0.2,0.3,0.3c0.1,0.1,0.2,0.2,0.3,0.3c0.1,0.1,0.2,0.2,0.3,0.3c0.1,0.1,0.2,0.2,0.3,0.3
			c0.1,0.1,0.2,0.2,0.3,0.3c0.1,0.1,0.2,0.2,0.3,0.3c0.1,0.1,0.2,0.2,0.3,0.3c0.1,0.1,0.2,0.2,0.3,0.3c0.1,0.1,0.2,0.2,0.3,0.3
			c0.1,0.1,0.2,0.2,0.3,0.3c0.1,0.1,0.2,0.2,0.3,0.3c0.1,0.1,0.2,0.2,0.3,0.3c0.1,0.1,0.2,0.2,0.3,0.3c0.1,0.1,0.2,0.2,0.3,0.3
			c0.1,0.1,0.2,0.2,0.3,0.3c0.1,0.1,0.2,0.2,0.3,0.3c0.1,0.1,0.2,0.2,0.3,0.3c0.1,0.1,0.2,0.2,0.3,0.3c0.1,0.1,0.2,0.2,0.3,0.3
			c0.1,0.1,0.2,0.2,0.3,0.3c0.1,0.1,0.2,0.2,0.3,0.3c0.1,0.1,0.2,0.2,0.3,0.3c0.1,0.1,0.2,0.2,0.3,0.3c0.1,0.1,0.2,0.2,0.3,0.3
			c0.1,0.1,0.2,0.2,0.3,0.3c0.1,0.1,0.2,0.2,0.3,0.3c0.1,0.1,0.2,0.2,0.3,0.3c0.1,0.1,0.2,0.2,0.3,0.3c0.1,0.1,0.2,0.2,0.3,0.3
			c0.1,0.1,0.2,0.2,0.3,0.3c0.1,0.1,0.2,0.2,0.3,0.3c0.1,0.1,0.2,0.2,0.3,0.3c0.1,0.1,0.2,0.2,0.3,0.3c0.1,0.1,0.2,0.2,0.3,0.3
			c0.1,0.1,0.2,0.2,0.3,0.3c0.1,0.1,0.2,0.2,0.3,0.3c0.7,0.7,1.4,1.4,2.2,2c10.3,8.9,25.6,13.1,45.8,12.8c20.4-0.3,36-4.9,46.8-14.2
			c10.7-9.2,16.1-22.5,16.1-39.9c0-13.3-3.3-25-9.8-34.9C570.4,174,567.1,170.2,563.1,166.1z"/>
		<path d="M716,82.4c0-10.3-0.1-20.7-0.1-31c-0.1,0-0.2,0-0.3,0c0-0.1,0-0.2,0-0.3c-0.1,0-0.2,0-0.3,0c0-0.1,0-0.2,0-0.3
			c-0.1,0-0.2,0-0.3,0c0-0.1,0-0.2,0-0.3c-0.1,0-0.2,0-0.3,0c0-0.1,0-0.2,0-0.3c-0.1,0-0.2,0-0.3,0c0-0.1,0-0.2,0-0.3
			c-0.1,0-0.2,0-0.3,0c0-0.1,0-0.2,0-0.3c-0.1,0-0.2,0-0.3,0c0-0.1,0-0.2,0-0.3c-0.1,0-0.2,0-0.3,0c0-0.1,0-0.2,0-0.3
			c-0.1,0-0.2,0-0.3,0c0-0.1,0-0.2,0-0.3c-0.1,0-0.2,0-0.3,0c0-0.1,0-0.2,0-0.3c-0.1,0-0.2,0-0.3,0c0-0.1,0-0.2,0-0.3
			c-0.1,0-0.2,0-0.3,0c0-0.1,0-0.2,0-0.3c-0.1,0-0.2,0-0.3,0c0-0.1,0-0.2,0-0.3c-0.1,0-0.2,0-0.3,0c0-0.1,0-0.2,0-0.3
			c-0.1,0-0.2,0-0.3,0c0-0.1,0-0.2,0-0.3c-0.1,0-0.2,0-0.3,0c0-0.1,0-0.2,0-0.3c-0.1,0-0.2,0-0.3,0c0-0.1,0-0.2,0-0.3
			c-0.1,0-0.2,0-0.3,0c0-0.1,0-0.2,0-0.3c-0.1,0-0.2,0-0.3,0c0-0.1,0-0.2,0-0.3c-0.1,0-0.2,0-0.3,0c0-0.1,0-0.2,0-0.3
			c-0.1,0-0.2,0-0.3,0c0-0.1,0-0.2,0-0.3c-0.1,0-0.2,0-0.3,0c0-0.1,0-0.2,0-0.3c-0.1,0-0.2,0-0.3,0c0-0.1,0-0.2,0-0.3
			c-0.1,0-0.2,0-0.3,0c0-0.1,0-0.2,0-0.3c-0.1,0-0.2,0-0.3,0c0-0.1,0-0.2,0-0.3c-0.1,0-0.2,0-0.3,0c0-0.1,0-0.2,0-0.3
			c-0.1,0-0.2,0-0.3,0c0-0.1,0-0.2,0-0.3c-0.1,0-0.2,0-0.3,0c0-0.1,0-0.2,0-0.3c-0.1,0-0.2,0-0.3,0c0-0.1,0-0.2,0-0.3
			c-0.1,0-0.2,0-0.3,0c0-0.1,0-0.2,0-0.3c-0.1,0-0.2,0-0.3,0c0-0.1,0-0.2,0-0.3c-0.1,0-0.2,0-0.3,0c0-0.1,0-0.2,0-0.3
			c-0.1,0-0.2,0-0.3,0c0-0.1,0-0.2,0-0.3c-0.1,0-0.2,0-0.3,0c0-0.1,0-0.2,0-0.3c-0.1,0-0.2,0-0.3,0c0-0.1,0-0.2,0-0.3
			c-0.1,0-0.2,0-0.3,0c0-0.1,0-0.2,0-0.3c-0.1,0-0.2,0-0.3,0c0-0.1,0-0.2,0-0.3c-0.1,0-0.2,0-0.3,0c0-0.1,0-0.2,0-0.3
			c-0.1,0-0.2,0-0.3,0c0-0.1,0-0.2,0-0.3c-0.1,0-0.2,0-0.3,0c0-0.1,0-0.2,0-0.3c-0.1,0-0.2,0-0.3,0c0-0.1,0-0.2,0-0.3
			c-0.1,0-0.2,0-0.3,0c0-0.1,0-0.2,0-0.3c-0.1,0-0.2,0-0.3,0c0-0.1,0-0.2,0-0.3c-0.1,0-0.2,0-0.3,0c0-0.1,0-0.2,0-0.3
			c-0.1,0-0.2,0-0.3,0c0-0.1,0-0.2,0-0.3c-0.1,0-0.2,0-0.3,0c0-0.1,0-0.2,0-0.3c-0.1,0-0.2,0-0.3,0c0-0.1,0-0.2,0-0.3
			c-0.1,0-0.2,0-0.3,0c0-0.1,0-0.2,0-0.3c-0.1,0-0.2,0-0.3,0c0-0.1,0-0.2,0-0.3c-0.1,0-0.2,0-0.3,0c0-0.1,0-0.2,0-0.3
			c-0.1,0-0.2,0-0.3,0c0-0.1,0-0.2,0-0.3c-36.5,0-73.1-0.1-109.6-0.1c0.1,70.9,0.2,141.8,0.3,212.7c0.1,0,0.2,0,0.3,0
			c0,0.1,0,0.2,0,0.3c0.1,0,0.2,0,0.3,0c0,0.1,0,0.2,0,0.3c0.1,0,0.2,0,0.3,0c0,0.1,0,0.2,0,0.3c0.1,0,0.2,0,0.3,0
			c0,0.1,0,0.2,0,0.3c0.1,0,0.2,0,0.3,0c0,0.1,0,0.2,0,0.3c0.1,0,0.2,0,0.3,0c0,0.1,0,0.2,0,0.3c0.1,0,0.2,0,0.3,0
			c0,0.1,0,0.2,0,0.3c0.1,0,0.2,0,0.3,0c0,0.1,0,0.2,0,0.3c0.1,0,0.2,0,0.3,0c0,0.1,0,0.2,0,0.3c0.1,0,0.2,0,0.3,0
			c0,0.1,0,0.2,0,0.3c0.1,0,0.2,0,0.3,0c0,0.1,0,0.2,0,0.3c0.1,0,0.2,0,0.3,0c0,0.1,0,0.2,0,0.3c0.1,0,0.2,0,0.3,0
			c0,0.1,0,0.2,0,0.3c0.1,0,0.2,0,0.3,0c0,0.1,0,0.2,0,0.3c0.1,0,0.2,0,0.3,0c0,0.1,0,0.2,0,0.3c0.1,0,0.2,0,0.3,0
			c0,0.1,0,0.2,0,0.3c0.1,0,0.2,0,0.3,0c0,0.1,0,0.2,0,0.3c0.1,0,0.2,0,0.3,0c0,0.1,0,0.2,0,0.3c0.1,0,0.2,0,0.3,0
			c0,0.1,0,0.2,0,0.3c0.1,0,0.2,0,0.3,0c0,0.1,0,0.2,0,0.3c0.1,0,0.2,0,0.3,0c0,0.1,0,0.2,0,0.3c0.1,0,0.2,0,0.3,0
			c0,0.1,0,0.2,0,0.3c0.1,0,0.2,0,0.3,0c0,0.1,0,0.2,0,0.3c0.1,0,0.2,0,0.3,0c0,0.1,0,0.2,0,0.3c0.1,0,0.2,0,0.3,0
			c0,0.1,0,0.2,0,0.3c0.1,0,0.2,0,0.3,0c0,0.1,0,0.2,0,0.3c0.1,0,0.2,0,0.3,0c0,0.1,0,0.2,0,0.3c0.1,0,0.2,0,0.3,0
			c0,0.1,0,0.2,0,0.3c0.1,0,0.2,0,0.3,0c0,0.1,0,0.2,0,0.3c0.1,0,0.2,0,0.3,0c0,0.1,0,0.2,0,0.3c0.1,0,0.2,0,0.3,0
			c0,0.1,0,0.2,0,0.3c0.1,0,0.2,0,0.3,0c0,0.1,0,0.2,0,0.3c0.1,0,0.2,0,0.3,0c0,0.1,0,0.2,0,0.3c0.1,0,0.2,0,0.3,0
			c0,0.1,0,0.2,0,0.3c0.1,0,0.2,0,0.3,0c0,0.1,0,0.2,0,0.3c0.1,0,0.2,0,0.3,0c0,0.1,0,0.2,0,0.3c0.1,0,0.2,0,0.3,0
			c0,0.1,0,0.2,0,0.3c0.1,0,0.2,0,0.3,0c0,0.1,0,0.2,0,0.3c0.1,0,0.2,0,0.3,0c0,0.1,0,0.2,0,0.3c0.1,0,0.2,0,0.3,0
			c0,0.1,0,0.2,0,0.3c0.1,0,0.2,0,0.3,0c0,0.1,0,0.2,0,0.3c0.1,0,0.2,0,0.3,0c0,0.1,0,0.2,0,0.3c0.1,0,0.2,0,0.3,0
			c0,0.1,0,0.2,0,0.3c0.1,0,0.2,0,0.3,0c0,0.1,0,0.2,0,0.3c0.1,0,0.2,0,0.3,0c0,0.1,0,0.2,0,0.3c0.1,0,0.2,0,0.3,0
			c0,0.1,0,0.2,0,0.3c0.1,0,0.2,0,0.3,0c0,0.1,0,0.2,0,0.3c0.1,0,0.2,0,0.3,0c0,0.1,0,0.2,0,0.3c0.1,0,0.2,0,0.3,0
			c0,0.1,0,0.2,0,0.3c0.1,0,0.2,0,0.3,0c0,0.1,0,0.2,0,0.3c0.1,0,0.2,0,0.3,0c0,0.1,0,0.2,0,0.3c13.9,0.3,27.8,0.7,41.6,1.2
			c-0.1-31.1-0.1-62.1-0.2-93.2c17.9,0.4,35.7,0.8,53.6,1.4c0-10.3-0.1-20.6-0.1-30.9c-0.1,0-0.2,0-0.3,0c0-0.1,0-0.2,0-0.3
			c-0.1,0-0.2,0-0.3,0c0-0.1,0-0.2,0-0.3c-0.1,0-0.2,0-0.3,0c0-0.1,0-0.2,0-0.3c-0.1,0-0.2,0-0.3,0c0-0.1,0-0.2,0-0.3
			c-0.1,0-0.2,0-0.3,0c0-0.1,0-0.2,0-0.3c-0.1,0-0.2,0-0.3,0c0-0.1,0-0.2,0-0.3c-0.1,0-0.2,0-0.3,0c0-0.1,0-0.2,0-0.3
			c-0.1,0-0.2,0-0.3,0c0-0.1,0-0.2,0-0.3c-0.1,0-0.2,0-0.3,0c0-0.1,0-0.2,0-0.3c-0.1,0-0.2,0-0.3,0c0-0.1,0-0.2,0-0.3
			c-0.1,0-0.2,0-0.3,0c0-0.1,0-0.2,0-0.3c-0.1,0-0.2,0-0.3,0c0-0.1,0-0.2,0-0.3c-0.1,0-0.2,0-0.3,0c0-0.1,0-0.2,0-0.3
			c-0.1,0-0.2,0-0.3,0c0-0.1,0-0.2,0-0.3c-0.1,0-0.2,0-0.3,0c0-0.1,0-0.2,0-0.3c-0.1,0-0.2,0-0.3,0c0-0.1,0-0.2,0-0.3
			c-0.1,0-0.2,0-0.3,0c0-0.1,0-0.2,0-0.3c-0.1,0-0.2,0-0.3,0c0-0.1,0-0.2,0-0.3c-0.1,0-0.2,0-0.3,0c0-0.1,0-0.2,0-0.3
			c-0.1,0-0.2,0-0.3,0c0-0.1,0-0.2,0-0.3c-0.1,0-0.2,0-0.3,0c0-0.1,0-0.2,0-0.3c-0.1,0-0.2,0-0.3,0c0-0.1,0-0.2,0-0.3
			c-0.1,0-0.2,0-0.3,0c0-0.1,0-0.2,0-0.3c-0.1,0-0.2,0-0.3,0c0-0.1,0-0.2,0-0.3c-0.1,0-0.2,0-0.3,0c0-0.1,0-0.2,0-0.3
			c-0.1,0-0.2,0-0.3,0c0-0.1,0-0.2,0-0.3c-0.1,0-0.2,0-0.3,0c0-0.1,0-0.2,0-0.3c-0.1,0-0.2,0-0.3,0c0-0.1,0-0.2,0-0.3
			c-0.1,0-0.2,0-0.3,0c0-0.1,0-0.2,0-0.3c-0.1,0-0.2,0-0.3,0c0-0.1,0-0.2,0-0.3c-0.1,0-0.2,0-0.3,0c0-0.1,0-0.2,0-0.3
			c-0.1,0-0.2,0-0.3,0c0-0.1,0-0.2,0-0.3c-0.1,0-0.2,0-0.3,0c0-0.1,0-0.2,0-0.3c-0.1,0-0.2,0-0.3,0c0-0.1,0-0.2,0-0.3
			c-0.1,0-0.2,0-0.3,0c0-0.1,0-0.2,0-0.3c-0.1,0-0.2,0-0.3,0c0-0.1,0-0.2,0-0.3c-0.1,0-0.2,0-0.3,0c0-0.1,0-0.2,0-0.3
			c-0.1,0-0.2,0-0.3,0c0-0.1,0-0.2,0-0.3c-0.1,0-0.2,0-0.3,0c0-0.1,0-0.2,0-0.3c-0.1,0-0.2,0-0.3,0c0-0.1,0-0.2,0-0.3
			c-0.1,0-0.2,0-0.3,0c0-0.1,0-0.2,0-0.3c-0.1,0-0.2,0-0.3,0c0-0.1,0-0.2,0-0.3c-0.1,0-0.2,0-0.3,0c0-0.1,0-0.2,0-0.3
			c-0.1,0-0.2,0-0.3,0c0-0.1,0-0.2,0-0.3c-0.1,0-0.2,0-0.3,0c0-0.1,0-0.2,0-0.3c-0.1,0-0.2,0-0.3,0c0-0.1,0-0.2,0-0.3
			c-0.1,0-0.2,0-0.3,0c0-0.1,0-0.2,0-0.3c-0.1,0-0.2,0-0.3,0c0-0.1,0-0.2,0-0.3c-0.1,0-0.2,0-0.3,0c0-0.1,0-0.2,0-0.3
			c-0.1,0-0.2,0-0.3,0c0-0.1,0-0.2,0-0.3c-0.1,0-0.2,0-0.3,0c0-0.1,0-0.2,0-0.3c-12.8-0.3-25.7-0.6-38.5-0.8
			c0-14.7-0.1-29.5-0.1-44.2C670.5,82,693.3,82.2,716,82.4z"/>
		<path d="M846,247.4c0-0.1,0-0.2,0-0.3c-0.1,0-0.2,0-0.3,0c0-0.1,0-0.2,0-0.3c-0.1,0-0.2,0-0.3,0c0-0.1,0-0.2,0-0.3
			c-0.1,0-0.2,0-0.3,0c0-0.1,0-0.2,0-0.3c-0.1,0-0.2,0-0.3,0c0-0.1,0-0.2,0-0.3c-0.1,0-0.2,0-0.3,0c0-0.1,0-0.2,0-0.3
			c-0.1,0-0.2,0-0.3,0c0-0.1,0-0.2,0-0.3c-0.1,0-0.2,0-0.3,0c0-0.1,0-0.2,0-0.3c-0.1,0-0.2,0-0.3,0c0-0.1,0-0.2,0-0.3
			c-0.1,0-0.2,0-0.3,0c0-0.1,0-0.2,0-0.3c-0.1,0-0.2,0-0.3,0c0-0.1,0-0.2,0-0.3c-0.1,0-0.2,0-0.3,0c0-0.1,0-0.2,0-0.3
			c-0.1,0-0.2,0-0.3,0c0-0.1,0-0.2,0-0.3c-0.1,0-0.2,0-0.3,0c0-0.1,0-0.2,0-0.3c-0.1,0-0.2,0-0.3,0c0-0.1,0-0.2,0-0.3
			c-0.1,0-0.2,0-0.3,0c0-0.1,0-0.2,0-0.3c-0.1,0-0.2,0-0.3,0c0-0.1,0-0.2,0-0.3c-0.1,0-0.2,0-0.3,0c0-0.1,0-0.2,0-0.3
			c-0.1,0-0.2,0-0.3,0c0-0.1,0-0.2,0-0.3c-0.1,0-0.2,0-0.3,0c0-0.1,0-0.2,0-0.3c-0.1,0-0.2,0-0.3,0c0-0.1,0-0.2,0-0.3
			c-0.1,0-0.2,0-0.3,0c0-0.1,0-0.2,0-0.3c-0.1,0-0.2,0-0.3,0c0-0.1,0-0.2,0-0.3c-0.1,0-0.2,0-0.3,0c0-0.1,0-0.2,0-0.3
			c-0.1,0-0.2,0-0.3,0c0-0.1,0-0.2,0-0.3c-0.1,0-0.2,0-0.3,0c0-0.1,0-0.2,0-0.3c-0.1,0-0.2,0-0.3,0c0-0.1,0-0.2,0-0.3
			c-0.1,0-0.2,0-0.3,0c0-0.1,0-0.2,0-0.3c-0.1,0-0.2,0-0.3,0c0-0.1,0-0.2,0-0.3c-0.1,0-0.2,0-0.3,0c0-0.1,0-0.2,0-0.3
			c-0.1,0-0.2,0-0.3,0c0-0.1,0-0.2,0-0.3c-0.1,0-0.2,0-0.3,0c0-0.1,0-0.2,0-0.3c-0.1,0-0.2,0-0.3,0c0-0.1,0-0.2,0-0.3
			c-0.1,0-0.2,0-0.3,0c0-0.1,0-0.2,0-0.3c-0.1,0-0.2,0-0.3,0c0-0.1,0-0.2,0-0.3c-0.1,0-0.2,0-0.3,0c0-0.1,0-0.2,0-0.3
			c-0.1,0-0.2,0-0.3,0c0-0.1,0-0.2,0-0.3c-0.1,0-0.2,0-0.3,0c0-0.1,0-0.2,0-0.3c-0.1,0-0.2,0-0.3,0c0-0.1,0-0.2,0-0.3
			c-0.1,0-0.2,0-0.3,0c0-0.1,0-0.2,0-0.3c-0.1,0-0.2,0-0.3,0c0-0.1,0-0.2,0-0.3c-0.1,0-0.2,0-0.3,0c0-0.1,0-0.2,0-0.3
			c-0.1,0-0.2,0-0.3,0c0-0.1,0-0.2,0-0.3c-0.1,0-0.2,0-0.3,0c0-0.1,0-0.2,0-0.3c-0.1,0-0.2,0-0.3,0c0-0.1,0-0.2,0-0.3
			c-0.1,0-0.2,0-0.3,0c0-0.1,0-0.2,0-0.3c-0.1,0-0.2,0-0.3,0c0-0.1,0-0.2,0-0.3c-0.1,0-0.2,0-0.3,0c0-0.1,0-0.2,0-0.3
			c-0.1,0-0.2,0-0.3,0c0-0.1,0-0.2,0-0.3c-0.1,0-0.2,0-0.3,0c0-0.1,0-0.2,0-0.3c-0.1,0-0.2,0-0.3,0c0-0.1,0-0.2,0-0.3
			c-17.7-1.7-35.5-3.3-53.2-4.7c-0.2-58.5-0.5-117.1-0.7-175.6c-0.1,0-0.2,0-0.3,0c0-0.1,0-0.2,0-0.3c-0.1,0-0.2,0-0.3,0
			c0-0.1,0-0.2,0-0.3c-0.1,0-0.2,0-0.3,0c0-0.1,0-0.2,0-0.3c-0.1,0-0.2,0-0.3,0c0-0.1,0-0.2,0-0.3c-0.1,0-0.2,0-0.3,0
			c0-0.1,0-0.2,0-0.3c-0.1,0-0.2,0-0.3,0c0-0.1,0-0.2,0-0.3c-0.1,0-0.2,0-0.3,0c0-0.1,0-0.2,0-0.3c-0.1,0-0.2,0-0.3,0
			c0-0.1,0-0.2,0-0.3c-0.1,0-0.2,0-0.3,0c0-0.1,0-0.2,0-0.3c-0.1,0-0.2,0-0.3,0c0-0.1,0-0.2,0-0.3c-0.1,0-0.2,0-0.3,0
			c0-0.1,0-0.2,0-0.3c-0.1,0-0.2,0-0.3,0c0-0.1,0-0.2,0-0.3c-0.1,0-0.2,0-0.3,0c0-0.1,0-0.2,0-0.3c-0.1,0-0.2,0-0.3,0
			c0-0.1,0-0.2,0-0.3c-0.1,0-0.2,0-0.3,0c0-0.1,0-0.2,0-0.3c-0.1,0-0.2,0-0.3,0c0-0.1,0-0.2,0-0.3c-0.1,0-0.2,0-0.3,0
			c0-0.1,0-0.2,0-0.3c-0.1,0-0.2,0-0.3,0c0-0.1,0-0.2,0-0.3c-0.1,0-0.2,0-0.3,0c0-0.1,0-0.2,0-0.3c-0.1,0-0.2,0-0.3,0
			c0-0.1,0-0.2,0-0.3c-0.1,0-0.2,0-0.3,0c0-0.1,0-0.2,0-0.3c-0.1,0-0.2,0-0.3,0c0-0.1,0-0.2,0-0.3c-0.1,0-0.2,0-0.3,0
			c0-0.1,0-0.2,0-0.3c-0.1,0-0.2,0-0.3,0c0-0.1,0-0.2,0-0.3c-0.1,0-0.2,0-0.3,0c0-0.1,0-0.2,0-0.3c-0.1,0-0.2,0-0.3,0
			c0-0.1,0-0.2,0-0.3c-0.1,0-0.2,0-0.3,0c0-0.1,0-0.2,0-0.3c-0.1,0-0.2,0-0.3,0c0-0.1,0-0.2,0-0.3c-0.1,0-0.2,0-0.3,0
			c0-0.1,0-0.2,0-0.3c-0.1,0-0.2,0-0.3,0c0-0.1,0-0.2,0-0.3c-0.1,0-0.2,0-0.3,0c0-0.1,0-0.2,0-0.3c-0.1,0-0.2,0-0.3,0
			c0-0.1,0-0.2,0-0.3c-0.1,0-0.2,0-0.3,0c0-0.1,0-0.2,0-0.3c-0.1,0-0.2,0-0.3,0c0-0.1,0-0.2,0-0.3c-0.1,0-0.2,0-0.3,0
			c0-0.1,0-0.2,0-0.3c-0.1,0-0.2,0-0.3,0c0-0.1,0-0.2,0-0.3c-0.1,0-0.2,0-0.3,0c0-0.1,0-0.2,0-0.3c-0.1,0-0.2,0-0.3,0
			c0-0.1,0-0.2,0-0.3c-0.1,0-0.2,0-0.3,0c0-0.1,0-0.2,0-0.3c-0.1,0-0.2,0-0.3,0c0-0.1,0-0.2,0-0.3c-0.1,0-0.2,0-0.3,0
			c0-0.1,0-0.2,0-0.3c-0.1,0-0.2,0-0.3,0c0-0.1,0-0.2,0-0.3c-0.1,0-0.2,0-0.3,0c0-0.1,0-0.2,0-0.3c-0.1,0-0.2,0-0.3,0
			c0-0.1,0-0.2,0-0.3c-0.1,0-0.2,0-0.3,0c0-0.1,0-0.2,0-0.3c-0.1,0-0.2,0-0.3,0c0-0.1,0-0.2,0-0.3c-0.1,0-0.2,0-0.3,0
			c0-0.1,0-0.2,0-0.3c-0.1,0-0.2,0-0.3,0c0-0.1,0-0.2,0-0.3c-0.1,0-0.2,0-0.3,0c0-0.1,0-0.2,0-0.3c-0.1,0-0.2,0-0.3,0
			c0-0.1,0-0.2,0-0.3c-0.1,0-0.2,0-0.3,0c0-0.1,0-0.2,0-0.3c-13.8,0-27.6,0-41.4,0c0.3,72.8,0.5,145.7,0.8,218.5c0.1,0,0.2,0,0.3,0
			c0,0.1,0,0.2,0,0.3c0.1,0,0.2,0,0.3,0c0,0.1,0,0.2,0,0.3c0.1,0,0.2,0,0.3,0c0,0.1,0,0.2,0,0.3c0.1,0,0.2,0,0.3,0
			c0,0.1,0,0.2,0,0.3c0.1,0,0.2,0,0.3,0c0,0.1,0,0.2,0,0.3c0.1,0,0.2,0,0.3,0c0,0.1,0,0.2,0,0.3c0.1,0,0.2,0,0.3,0
			c0,0.1,0,0.2,0,0.3c0.1,0,0.2,0,0.3,0c0,0.1,0,0.2,0,0.3c0.1,0,0.2,0,0.3,0c0,0.1,0,0.2,0,0.3c0.1,0,0.2,0,0.3,0
			c0,0.1,0,0.2,0,0.3c0.1,0,0.2,0,0.3,0c0,0.1,0,0.2,0,0.3c0.1,0,0.2,0,0.3,0c0,0.1,0,0.2,0,0.3c0.1,0,0.2,0,0.3,0
			c0,0.1,0,0.2,0,0.3c0.1,0,0.2,0,0.3,0c0,0.1,0,0.2,0,0.3c0.1,0,0.2,0,0.3,0c0,0.1,0,0.2,0,0.3c0.1,0,0.2,0,0.3,0
			c0,0.1,0,0.2,0,0.3c0.1,0,0.2,0,0.3,0c0,0.1,0,0.2,0,0.3c0.1,0,0.2,0,0.3,0c0,0.1,0,0.2,0,0.3c0.1,0,0.2,0,0.3,0
			c0,0.1,0,0.2,0,0.3c0.1,0,0.2,0,0.3,0c0,0.1,0,0.2,0,0.3c0.1,0,0.2,0,0.3,0c0,0.1,0,0.2,0,0.3c0.1,0,0.2,0,0.3,0
			c0,0.1,0,0.2,0,0.3c0.1,0,0.2,0,0.3,0c0,0.1,0,0.2,0,0.3c0.1,0,0.2,0,0.3,0c0,0.1,0,0.2,0,0.3c0.1,0,0.2,0,0.3,0
			c0,0.1,0,0.2,0,0.3c0.1,0,0.2,0,0.3,0c0,0.1,0,0.2,0,0.3c0.1,0,0.2,0,0.3,0c0,0.1,0,0.2,0,0.3c0.1,0,0.2,0,0.3,0
			c0,0.1,0,0.2,0,0.3c0.1,0,0.2,0,0.3,0c0,0.1,0,0.2,0,0.3c0.1,0,0.2,0,0.3,0c0,0.1,0,0.2,0,0.3c0.1,0,0.2,0,0.3,0
			c0,0.1,0,0.2,0,0.3c0.1,0,0.2,0,0.3,0c0,0.1,0,0.2,0,0.3c0.1,0,0.2,0,0.3,0c0,0.1,0,0.2,0,0.3c0.1,0,0.2,0,0.3,0
			c0,0.1,0,0.2,0,0.3c0.1,0,0.2,0,0.3,0c0,0.1,0,0.2,0,0.3c0.1,0,0.2,0,0.3,0c0,0.1,0,0.2,0,0.3c0.1,0,0.2,0,0.3,0
			c0,0.1,0,0.2,0,0.3c0.1,0,0.2,0,0.3,0c0,0.1,0,0.2,0,0.3c0.1,0,0.2,0,0.3,0c0,0.1,0,0.2,0,0.3c0.1,0,0.2,0,0.3,0
			c0,0.1,0,0.2,0,0.3c0.1,0,0.2,0,0.3,0c0,0.1,0,0.2,0,0.3c0.1,0,0.2,0,0.3,0c0,0.1,0,0.2,0,0.3c0.1,0,0.2,0,0.3,0
			c0,0.1,0,0.2,0,0.3c0.1,0,0.2,0,0.3,0c0,0.1,0,0.2,0,0.3c0.1,0,0.2,0,0.3,0c0,0.1,0,0.2,0,0.3c0.1,0,0.2,0,0.3,0
			c0,0.1,0,0.2,0,0.3c0.1,0,0.2,0,0.3,0c0,0.1,0,0.2,0,0.3c0.1,0,0.2,0,0.3,0c0,0.1,0,0.2,0,0.3c0.1,0,0.2,0,0.3,0
			c0,0.1,0,0.2,0,0.3c0.1,0,0.2,0,0.3,0c0,0.1,0,0.2,0,0.3c0.1,0,0.2,0,0.3,0c0,0.1,0,0.2,0,0.3c36.7,2.6,73.3,6,109.8,10.1
			c0-10.9-0.1-21.8-0.1-32.6C846.2,247.4,846.1,247.4,846,247.4z"/>
		<path d="M906.5,51.7c0-0.1,0-0.2,0-0.3c-0.1,0-0.2,0-0.3,0c0-0.1,0-0.2,0-0.3c-0.1,0-0.2,0-0.3,0c0-0.1,0-0.2,0-0.3
			c-0.1,0-0.2,0-0.3,0c0-0.1,0-0.2,0-0.3c-0.1,0-0.2,0-0.3,0c0-0.1,0-0.2,0-0.3c-0.1,0-0.2,0-0.3,0c0-0.1,0-0.2,0-0.3
			c-0.1,0-0.2,0-0.3,0c0-0.1,0-0.2,0-0.3c-0.1,0-0.2,0-0.3,0c0-0.1,0-0.2,0-0.3c-0.1,0-0.2,0-0.3,0c0-0.1,0-0.2,0-0.3
			c-0.1,0-0.2,0-0.3,0c0-0.1,0-0.2,0-0.3c-0.1,0-0.2,0-0.3,0c0-0.1,0-0.2,0-0.3c-0.1,0-0.2,0-0.3,0c0-0.1,0-0.2,0-0.3
			c-0.1,0-0.2,0-0.3,0c0-0.1,0-0.2,0-0.3c-0.1,0-0.2,0-0.3,0c0-0.1,0-0.2,0-0.3c-0.1,0-0.2,0-0.3,0c0-0.1,0-0.2,0-0.3
			c-0.1,0-0.2,0-0.3,0c0-0.1,0-0.2,0-0.3c-0.1,0-0.2,0-0.3,0c0-0.1,0-0.2,0-0.3c-0.1,0-0.2,0-0.3,0c0-0.1,0-0.2,0-0.3
			c-0.1,0-0.2,0-0.3,0c0-0.1,0-0.2,0-0.3c-0.1,0-0.2,0-0.3,0c0-0.1,0-0.2,0-0.3c-0.1,0-0.2,0-0.3,0c0-0.1,0-0.2,0-0.3
			c-0.1,0-0.2,0-0.3,0c0-0.1,0-0.2,0-0.3c-0.1,0-0.2,0-0.3,0c0-0.1,0-0.2,0-0.3c-0.1,0-0.2,0-0.3,0c0-0.1,0-0.2,0-0.3
			c-0.1,0-0.2,0-0.3,0c0-0.1,0-0.2,0-0.3c-0.1,0-0.2,0-0.3,0c0-0.1,0-0.2,0-0.3c-0.1,0-0.2,0-0.3,0c0-0.1,0-0.2,0-0.3
			c-0.1,0-0.2,0-0.3,0c0-0.1,0-0.2,0-0.3c-0.1,0-0.2,0-0.3,0c0-0.1,0-0.2,0-0.3c-0.1,0-0.2,0-0.3,0c0-0.1,0-0.2,0-0.3
			c-0.1,0-0.2,0-0.3,0c0-0.1,0-0.2,0-0.3c-0.1,0-0.2,0-0.3,0c0-0.1,0-0.2,0-0.3c-0.1,0-0.2,0-0.3,0c0-0.1,0-0.2,0-0.3
			c-0.1,0-0.2,0-0.3,0c0-0.1,0-0.2,0-0.3c-0.1,0-0.2,0-0.3,0c0-0.1,0-0.2,0-0.3c-0.1,0-0.2,0-0.3,0c0-0.1,0-0.2,0-0.3
			c-0.1,0-0.2,0-0.3,0c0-0.1,0-0.2,0-0.3c-0.1,0-0.2,0-0.3,0c0-0.1,0-0.2,0-0.3c-0.1,0-0.2,0-0.3,0c0-0.1,0-0.2,0-0.3
			c-0.1,0-0.2,0-0.3,0c0-0.1,0-0.2,0-0.3c-0.1,0-0.2,0-0.3,0c0-0.1,0-0.2,0-0.3c-0.1,0-0.2,0-0.3,0c0-0.1,0-0.2,0-0.3
			c-0.1,0-0.2,0-0.3,0c0-0.1,0-0.2,0-0.3c-0.1,0-0.2,0-0.3,0c0-0.1,0-0.2,0-0.3c-0.1,0-0.2,0-0.3,0c0-0.1,0-0.2,0-0.3
			c-0.1,0-0.2,0-0.3,0c0-0.1,0-0.2,0-0.3c-0.1,0-0.2,0-0.3,0c0-0.1,0-0.2,0-0.3c-0.1,0-0.2,0-0.3,0c0-0.1,0-0.2,0-0.3
			c-0.1,0-0.2,0-0.3,0c0-0.1,0-0.2,0-0.3c-0.1,0-0.2,0-0.3,0c0-0.1,0-0.2,0-0.3c-0.1,0-0.2,0-0.3,0c0-0.1,0-0.2,0-0.3
			c-13.8,0-27.6-0.1-41.4-0.1c0.3,76.9,0.7,153.9,1,230.8c0.1,0,0.2,0,0.3,0c0,0.1,0,0.2,0,0.3c0.1,0,0.2,0,0.3,0c0,0.1,0,0.2,0,0.3
			c0.1,0,0.2,0,0.3,0c0,0.1,0,0.2,0,0.3c0.1,0,0.2,0,0.3,0c0,0.1,0,0.2,0,0.3c0.1,0,0.2,0,0.3,0c0,0.1,0,0.2,0,0.3
			c0.1,0,0.2,0,0.3,0c0,0.1,0,0.2,0,0.3c0.1,0,0.2,0,0.3,0c0,0.1,0,0.2,0,0.3c0.1,0,0.2,0,0.3,0c0,0.1,0,0.2,0,0.3
			c0.1,0,0.2,0,0.3,0c0,0.1,0,0.2,0,0.3c0.1,0,0.2,0,0.3,0c0,0.1,0,0.2,0,0.3c0.1,0,0.2,0,0.3,0c0,0.1,0,0.2,0,0.3
			c0.1,0,0.2,0,0.3,0c0,0.1,0,0.2,0,0.3c0.1,0,0.2,0,0.3,0c0,0.1,0,0.2,0,0.3c0.1,0,0.2,0,0.3,0c0,0.1,0,0.2,0,0.3
			c0.1,0,0.2,0,0.3,0c0,0.1,0,0.2,0,0.3c0.1,0,0.2,0,0.3,0c0,0.1,0,0.2,0,0.3c0.1,0,0.2,0,0.3,0c0,0.1,0,0.2,0,0.3
			c0.1,0,0.2,0,0.3,0c0,0.1,0,0.2,0,0.3c0.1,0,0.2,0,0.3,0c0,0.1,0,0.2,0,0.3c0.1,0,0.2,0,0.3,0c0,0.1,0,0.2,0,0.3
			c0.1,0,0.2,0,0.3,0c0,0.1,0,0.2,0,0.3c0.1,0,0.2,0,0.3,0c0,0.1,0,0.2,0,0.3c0.1,0,0.2,0,0.3,0c0,0.1,0,0.2,0,0.3
			c0.1,0,0.2,0,0.3,0c0,0.1,0,0.2,0,0.3c0.1,0,0.2,0,0.3,0c0,0.1,0,0.2,0,0.3c0.1,0,0.2,0,0.3,0c0,0.1,0,0.2,0,0.3
			c0.1,0,0.2,0,0.3,0c0,0.1,0,0.2,0,0.3c0.1,0,0.2,0,0.3,0c0,0.1,0,0.2,0,0.3c0.1,0,0.2,0,0.3,0c0,0.1,0,0.2,0,0.3
			c0.1,0,0.2,0,0.3,0c0,0.1,0,0.2,0,0.3c0.1,0,0.2,0,0.3,0c0,0.1,0,0.2,0,0.3c0.1,0,0.2,0,0.3,0c0,0.1,0,0.2,0,0.3
			c0.1,0,0.2,0,0.3,0c0,0.1,0,0.2,0,0.3c0.1,0,0.2,0,0.3,0c0,0.1,0,0.2,0,0.3c0.1,0,0.2,0,0.3,0c0,0.1,0,0.2,0,0.3
			c0.1,0,0.2,0,0.3,0c0,0.1,0,0.2,0,0.3c0.1,0,0.2,0,0.3,0c0,0.1,0,0.2,0,0.3c0.1,0,0.2,0,0.3,0c0,0.1,0,0.2,0,0.3
			c0.1,0,0.2,0,0.3,0c0,0.1,0,0.2,0,0.3c0.1,0,0.2,0,0.3,0c0,0.1,0,0.2,0,0.3c0.1,0,0.2,0,0.3,0c0,0.1,0,0.2,0,0.3
			c0.1,0,0.2,0,0.3,0c0,0.1,0,0.2,0,0.3c0.1,0,0.2,0,0.3,0c0,0.1,0,0.2,0,0.3c0.1,0,0.2,0,0.3,0c0,0.1,0,0.2,0,0.3
			c0.1,0,0.2,0,0.3,0c0,0.1,0,0.2,0,0.3c0.1,0,0.2,0,0.3,0c0,0.1,0,0.2,0,0.3c0.1,0,0.2,0,0.3,0c0,0.1,0,0.2,0,0.3
			c0.1,0,0.2,0,0.3,0c0,0.1,0,0.2,0,0.3c0.1,0,0.2,0,0.3,0c0,0.1,0,0.2,0,0.3c0.1,0,0.2,0,0.3,0c0,0.1,0,0.2,0,0.3
			c0.1,0,0.2,0,0.3,0c0,0.1,0,0.2,0,0.3c13.8,1.7,27.6,3.5,41.4,5.4c-0.3-78.7-0.6-157.4-1-236.1C906.7,51.7,906.6,51.7,906.5,51.7z
			"/>
		<path d="M1071,315.7c-15.8-48.2-31.7-94.6-47.6-139.4c15.1-40.1,30.2-81.4,45.4-124.2c-0.1,0-0.3,0-0.4,0c0-0.1,0.1-0.2,0.1-0.3
			c-0.1,0-0.3,0-0.4,0c0-0.1,0.1-0.2,0.1-0.3c-0.1,0-0.3,0-0.4,0c0-0.1,0.1-0.2,0.1-0.3c-0.1,0-0.3,0-0.4,0c0-0.1,0.1-0.2,0.1-0.3
			c-0.1,0-0.3,0-0.4,0c0-0.1,0.1-0.2,0.1-0.3c-0.1,0-0.3,0-0.4,0c0-0.1,0.1-0.2,0.1-0.3c-0.1,0-0.3,0-0.4,0c0-0.1,0.1-0.2,0.1-0.3
			c-0.1,0-0.3,0-0.4,0c0-0.1,0.1-0.2,0.1-0.3c-0.1,0-0.3,0-0.4,0c0-0.1,0.1-0.2,0.1-0.3c-0.1,0-0.3,0-0.4,0c0-0.1,0.1-0.2,0.1-0.3
			c-0.1,0-0.3,0-0.4,0c0-0.1,0.1-0.2,0.1-0.3c-0.1,0-0.3,0-0.4,0c0-0.1,0.1-0.2,0.1-0.3c-0.1,0-0.3,0-0.4,0c0-0.1,0.1-0.2,0.1-0.3
			c-0.1,0-0.3,0-0.4,0c0-0.1,0.1-0.2,0.1-0.3c-0.1,0-0.3,0-0.4,0c0-0.1,0.1-0.2,0.1-0.3c-0.1,0-0.3,0-0.4,0c0-0.1,0.1-0.2,0.1-0.3
			c-0.1,0-0.3,0-0.4,0c0-0.1,0.1-0.2,0.1-0.3c-0.1,0-0.3,0-0.4,0c0-0.1,0.1-0.2,0.1-0.3c-0.1,0-0.3,0-0.4,0c0-0.1,0.1-0.2,0.1-0.3
			c-0.1,0-0.3,0-0.4,0c0-0.1,0.1-0.2,0.1-0.3c-0.1,0-0.3,0-0.4,0c0-0.1,0.1-0.2,0.1-0.3c-0.1,0-0.3,0-0.4,0c0-0.1,0.1-0.2,0.1-0.3
			c-0.1,0-0.3,0-0.4,0c0-0.1,0.1-0.2,0.1-0.3c-0.1,0-0.3,0-0.4,0c0-0.1,0.1-0.2,0.1-0.3c-0.1,0-0.3,0-0.4,0c0-0.1,0.1-0.2,0.1-0.3
			c-0.1,0-0.3,0-0.4,0c0-0.1,0.1-0.2,0.1-0.3c-0.1,0-0.3,0-0.4,0c0-0.1,0.1-0.2,0.1-0.3c-0.1,0-0.3,0-0.4,0c0-0.1,0.1-0.2,0.1-0.3
			c-0.1,0-0.3,0-0.4,0c0-0.1,0.1-0.2,0.1-0.3c-0.1,0-0.3,0-0.4,0c0-0.1,0.1-0.2,0.1-0.3c-0.1,0-0.3,0-0.4,0c0-0.1,0.1-0.2,0.1-0.3
			c-0.1,0-0.3,0-0.4,0c0-0.1,0.1-0.2,0.1-0.3c-0.1,0-0.3,0-0.4,0c0-0.1,0.1-0.2,0.1-0.3c-0.1,0-0.3,0-0.4,0c0-0.1,0.1-0.2,0.1-0.3
			c-0.1,0-0.3,0-0.4,0c0-0.1,0.1-0.2,0.1-0.3c-0.1,0-0.3,0-0.4,0c0-0.1,0.1-0.2,0.1-0.3c-0.1,0-0.3,0-0.4,0c0-0.1,0.1-0.2,0.1-0.3
			c-0.1,0-0.3,0-0.4,0c0-0.1,0.1-0.2,0.1-0.3c-0.1,0-0.3,0-0.4,0c0-0.1,0.1-0.2,0.1-0.3c-0.1,0-0.3,0-0.4,0c0-0.1,0.1-0.2,0.1-0.3
			c-0.1,0-0.3,0-0.4,0c0-0.1,0.1-0.2,0.1-0.3c-0.1,0-0.3,0-0.4,0c0-0.1,0.1-0.2,0.1-0.3c-0.1,0-0.3,0-0.4,0c0-0.1,0.1-0.2,0.1-0.3
			c-0.1,0-0.3,0-0.4,0c0-0.1,0.1-0.2,0.1-0.3c-0.1,0-0.3,0-0.4,0c0-0.1,0.1-0.2,0.1-0.3c-0.1,0-0.3,0-0.4,0c0-0.1,0.1-0.2,0.1-0.3
			c-0.1,0-0.3,0-0.4,0c0-0.1,0.1-0.2,0.1-0.3c-0.1,0-0.3,0-0.4,0c0-0.1,0.1-0.2,0.1-0.3c-0.1,0-0.3,0-0.4,0c0-0.1,0.1-0.2,0.1-0.3
			c-0.1,0-0.3,0-0.4,0c0-0.1,0.1-0.2,0.1-0.3c-0.1,0-0.3,0-0.4,0c0-0.1,0.1-0.2,0.1-0.3c-13.1,0-26.1-0.1-39.2-0.1
			c-8,23.1-15.9,45.7-23.8,68c-6.1-17.7-12.2-35.2-18.3-52.5c-0.1,0-0.1,0-0.2,0c0-0.1-0.1-0.2-0.1-0.3c-0.1,0-0.1,0-0.2,0
			c0-0.1-0.1-0.2-0.1-0.3c-0.1,0-0.1,0-0.2,0c0-0.1-0.1-0.2-0.1-0.3c-0.1,0-0.1,0-0.2,0c0-0.1-0.1-0.2-0.1-0.3c-0.1,0-0.1,0-0.2,0
			c0-0.1-0.1-0.2-0.1-0.3c-0.1,0-0.1,0-0.2,0c0-0.1-0.1-0.2-0.1-0.3c-0.1,0-0.1,0-0.2,0c0-0.1-0.1-0.2-0.1-0.3c-0.1,0-0.1,0-0.2,0
			c0-0.1-0.1-0.2-0.1-0.3c-0.1,0-0.1,0-0.2,0c0-0.1-0.1-0.2-0.1-0.3c-0.1,0-0.1,0-0.2,0c0-0.1-0.1-0.2-0.1-0.3c-0.1,0-0.1,0-0.2,0
			c0-0.1-0.1-0.2-0.1-0.3c-0.1,0-0.1,0-0.2,0c0-0.1-0.1-0.2-0.1-0.3c-0.1,0-0.1,0-0.2,0c0-0.1-0.1-0.2-0.1-0.3c-0.1,0-0.1,0-0.2,0
			c0-0.1-0.1-0.2-0.1-0.3c-0.1,0-0.1,0-0.2,0c0-0.1-0.1-0.2-0.1-0.3c-0.1,0-0.1,0-0.2,0c0-0.1-0.1-0.2-0.1-0.3c-0.1,0-0.1,0-0.2,0
			c0-0.1-0.1-0.2-0.1-0.3c-0.1,0-0.1,0-0.2,0c0-0.1-0.1-0.2-0.1-0.3c-0.1,0-0.1,0-0.2,0c0-0.1-0.1-0.2-0.1-0.3c-0.1,0-0.1,0-0.2,0
			c0-0.1-0.1-0.2-0.1-0.3c-0.1,0-0.1,0-0.2,0c0-0.1-0.1-0.2-0.1-0.3c-0.1,0-0.1,0-0.2,0c0-0.1-0.1-0.2-0.1-0.3c-0.1,0-0.1,0-0.2,0
			c0-0.1-0.1-0.2-0.1-0.3c-0.1,0-0.1,0-0.2,0c0-0.1-0.1-0.2-0.1-0.3c-0.1,0-0.1,0-0.2,0c0-0.1-0.1-0.2-0.1-0.3c-0.1,0-0.1,0-0.2,0
			c0-0.1-0.1-0.2-0.1-0.3c-0.1,0-0.1,0-0.2,0c0-0.1-0.1-0.2-0.1-0.3c-0.1,0-0.1,0-0.2,0c0-0.1-0.1-0.2-0.1-0.3c-0.1,0-0.1,0-0.2,0
			c0-0.1-0.1-0.2-0.1-0.3c-0.1,0-0.1,0-0.2,0c0-0.1-0.1-0.2-0.1-0.3c-0.1,0-0.1,0-0.2,0c0-0.1-0.1-0.2-0.1-0.3c-0.1,0-0.1,0-0.2,0
			c0-0.1-0.1-0.2-0.1-0.3c-0.1,0-0.1,0-0.2,0c0-0.1-0.1-0.2-0.1-0.3c-0.1,0-0.1,0-0.2,0c0-0.1-0.1-0.2-0.1-0.3c-0.1,0-0.1,0-0.2,0
			c0-0.1-0.1-0.2-0.1-0.3c-0.1,0-0.1,0-0.2,0c0-0.1-0.1-0.2-0.1-0.3c-0.1,0-0.1,0-0.2,0c0-0.1-0.1-0.2-0.1-0.3c-0.1,0-0.1,0-0.2,0
			c0-0.1-0.1-0.2-0.1-0.3c-0.1,0-0.1,0-0.2,0c0-0.1-0.1-0.2-0.1-0.3c-0.1,0-0.1,0-0.2,0c0-0.1-0.1-0.2-0.1-0.3c-0.1,0-0.1,0-0.2,0
			c0-0.1-0.1-0.2-0.1-0.3c-0.1,0-0.1,0-0.2,0c0-0.1-0.1-0.2-0.1-0.3c-0.1,0-0.1,0-0.2,0c0-0.1-0.1-0.2-0.1-0.3c-0.1,0-0.1,0-0.2,0
			c0-0.1-0.1-0.2-0.1-0.3c-0.1,0-0.1,0-0.2,0c0-0.1-0.1-0.2-0.1-0.3c-0.1,0-0.1,0-0.2,0c0-0.1-0.1-0.2-0.1-0.3c-0.1,0-0.1,0-0.2,0
			c0-0.1-0.1-0.2-0.1-0.3c-0.1,0-0.1,0-0.2,0c0-0.1-0.1-0.2-0.1-0.3c-0.1,0-0.1,0-0.2,0c0-0.1-0.1-0.2-0.1-0.3c-0.1,0-0.1,0-0.2,0
			c0-0.1-0.1-0.2-0.1-0.3c-0.1,0-0.1,0-0.2,0c0-0.1-0.1-0.2-0.1-0.3c-14.6,0-29.1-0.1-43.7-0.1c15.3,39,30.7,79,45.9,120.4
			c-15.8,40.7-31.5,80.1-47.3,118.5c0.1,0,0.3,0,0.4,0.1c0,0.1-0.1,0.2-0.1,0.2c0.1,0,0.3,0,0.4,0.1c0,0.1-0.1,0.2-0.1,0.2
			c0.1,0,0.3,0,0.4,0.1c0,0.1-0.1,0.2-0.1,0.2c0.1,0,0.3,0,0.4,0.1c0,0.1-0.1,0.2-0.1,0.2c0.1,0,0.3,0,0.4,0.1
			c0,0.1-0.1,0.2-0.1,0.2c0.1,0,0.3,0,0.4,0.1c0,0.1-0.1,0.2-0.1,0.2c0.1,0,0.3,0,0.4,0.1c0,0.1-0.1,0.2-0.1,0.2
			c0.1,0,0.3,0,0.4,0.1c0,0.1-0.1,0.2-0.1,0.2c0.1,0,0.3,0,0.4,0.1c0,0.1-0.1,0.2-0.1,0.2c0.1,0,0.3,0,0.4,0.1
			c0,0.1-0.1,0.2-0.1,0.2c0.1,0,0.3,0,0.4,0.1c0,0.1-0.1,0.2-0.1,0.2c0.1,0,0.3,0,0.4,0.1c0,0.1-0.1,0.2-0.1,0.2
			c0.1,0,0.3,0,0.4,0.1c0,0.1-0.1,0.2-0.1,0.2c0.1,0,0.3,0,0.4,0.1c0,0.1-0.1,0.2-0.1,0.2c0.1,0,0.3,0,0.4,0.1
			c0,0.1-0.1,0.2-0.1,0.2c0.1,0,0.3,0,0.4,0.1c0,0.1-0.1,0.2-0.1,0.2c0.1,0,0.3,0,0.4,0.1c0,0.1-0.1,0.2-0.1,0.2
			c0.1,0,0.3,0,0.4,0.1c0,0.1-0.1,0.2-0.1,0.2c0.1,0,0.3,0,0.4,0.1c0,0.1-0.1,0.2-0.1,0.2c0.1,0,0.3,0,0.4,0.1
			c0,0.1-0.1,0.2-0.1,0.2c0.1,0,0.3,0,0.4,0.1c0,0.1-0.1,0.2-0.1,0.2c0.1,0,0.3,0,0.4,0.1c0,0.1-0.1,0.2-0.1,0.2
			c0.1,0,0.3,0,0.4,0.1c0,0.1-0.1,0.2-0.1,0.2c0.1,0,0.3,0,0.4,0.1c0,0.1-0.1,0.2-0.1,0.2c0.1,0,0.3,0,0.4,0.1
			c0,0.1-0.1,0.2-0.1,0.2c0.1,0,0.3,0,0.4,0.1c0,0.1-0.1,0.2-0.1,0.2c0.1,0,0.3,0,0.4,0.1c0,0.1-0.1,0.2-0.1,0.2
			c0.1,0,0.3,0,0.4,0.1c0,0.1-0.1,0.2-0.1,0.2c0.1,0,0.3,0,0.4,0.1c0,0.1-0.1,0.2-0.1,0.2c0.1,0,0.3,0,0.4,0.1
			c0,0.1-0.1,0.2-0.1,0.2c0.1,0,0.3,0,0.4,0.1c0,0.1-0.1,0.2-0.1,0.2c0.1,0,0.3,0,0.4,0.1c0,0.1-0.1,0.2-0.1,0.2
			c0.1,0,0.3,0,0.4,0.1c0,0.1-0.1,0.2-0.1,0.2c0.1,0,0.3,0,0.4,0.1c0,0.1-0.1,0.2-0.1,0.2c0.1,0,0.3,0,0.4,0.1
			c0,0.1-0.1,0.2-0.1,0.2c0.1,0,0.3,0,0.4,0.1c0,0.1-0.1,0.2-0.1,0.2c0.1,0,0.3,0,0.4,0.1c0,0.1-0.1,0.2-0.1,0.2
			c0.1,0,0.3,0,0.4,0.1c0,0.1-0.1,0.2-0.1,0.2c0.1,0,0.3,0,0.4,0.1c0,0.1-0.1,0.2-0.1,0.2c0.1,0,0.3,0,0.4,0.1
			c0,0.1-0.1,0.2-0.1,0.2c0.1,0,0.3,0,0.4,0.1c0,0.1-0.1,0.2-0.1,0.2c0.1,0,0.3,0,0.4,0.1c0,0.1-0.1,0.2-0.1,0.2
			c0.1,0,0.3,0,0.4,0.1c0,0.1-0.1,0.2-0.1,0.2c0.1,0,0.3,0,0.4,0.1c0,0.1-0.1,0.2-0.1,0.2c0.1,0,0.3,0,0.4,0.1
			c0,0.1-0.1,0.2-0.1,0.2c0.1,0,0.3,0,0.4,0.1c0,0.1-0.1,0.2-0.1,0.2c0.1,0,0.3,0,0.4,0.1c0,0.1-0.1,0.2-0.1,0.2
			c0.1,0,0.3,0,0.4,0.1c0,0.1-0.1,0.2-0.1,0.2c0.1,0,0.3,0,0.4,0.1c0,0.1-0.1,0.2-0.1,0.2c0.1,0,0.3,0,0.4,0.1
			c0,0.1-0.1,0.2-0.1,0.2c0.1,0,0.3,0,0.4,0.1c0,0.1-0.1,0.2-0.1,0.2c13,1.9,26,3.9,39,6c8.6-22.6,17.1-45.5,25.7-68.8
			c6.9,21,13.8,42.2,20.6,63.8c0.1,0,0.1,0,0.2,0c0,0.1,0.1,0.2,0.1,0.3c0.1,0,0.1,0,0.2,0c0,0.1,0.1,0.2,0.1,0.3c0.1,0,0.1,0,0.2,0
			c0,0.1,0.1,0.2,0.1,0.3c0.1,0,0.1,0,0.2,0c0,0.1,0.1,0.2,0.1,0.3c0.1,0,0.1,0,0.2,0c0,0.1,0.1,0.2,0.1,0.3c0.1,0,0.1,0,0.2,0
			c0,0.1,0.1,0.2,0.1,0.3c0.1,0,0.1,0,0.2,0c0,0.1,0.1,0.2,0.1,0.3c0.1,0,0.1,0,0.2,0c0,0.1,0.1,0.2,0.1,0.3c0.1,0,0.1,0,0.2,0
			c0,0.1,0.1,0.2,0.1,0.3c0.1,0,0.1,0,0.2,0c0,0.1,0.1,0.2,0.1,0.3c0.1,0,0.1,0,0.2,0c0,0.1,0.1,0.2,0.1,0.3c0.1,0,0.1,0,0.2,0
			c0,0.1,0.1,0.2,0.1,0.3c0.1,0,0.1,0,0.2,0c0,0.1,0.1,0.2,0.1,0.3c0.1,0,0.1,0,0.2,0c0,0.1,0.1,0.2,0.1,0.3c0.1,0,0.1,0,0.2,0
			c0,0.1,0.1,0.2,0.1,0.3c0.1,0,0.1,0,0.2,0c0,0.1,0.1,0.2,0.1,0.3c0.1,0,0.1,0,0.2,0c0,0.1,0.1,0.2,0.1,0.3c0.1,0,0.1,0,0.2,0
			c0,0.1,0.1,0.2,0.1,0.3c0.1,0,0.1,0,0.2,0c0,0.1,0.1,0.2,0.1,0.3c0.1,0,0.1,0,0.2,0c0,0.1,0.1,0.2,0.1,0.3c0.1,0,0.1,0,0.2,0
			c0,0.1,0.1,0.2,0.1,0.3c0.1,0,0.1,0,0.2,0c0,0.1,0.1,0.2,0.1,0.3c0.1,0,0.1,0,0.2,0c0,0.1,0.1,0.2,0.1,0.3c0.1,0,0.1,0,0.2,0
			c0,0.1,0.1,0.2,0.1,0.3c0.1,0,0.1,0,0.2,0c0,0.1,0.1,0.2,0.1,0.3c0.1,0,0.1,0,0.2,0c0,0.1,0.1,0.2,0.1,0.3c0.1,0,0.1,0,0.2,0
			c0,0.1,0.1,0.2,0.1,0.3c0.1,0,0.1,0,0.2,0c0,0.1,0.1,0.2,0.1,0.3c0.1,0,0.1,0,0.2,0c0,0.1,0.1,0.2,0.1,0.3c0.1,0,0.1,0,0.2,0
			c0,0.1,0.1,0.2,0.1,0.3c0.1,0,0.1,0,0.2,0c0,0.1,0.1,0.2,0.1,0.3c0.1,0,0.1,0,0.2,0c0,0.1,0.1,0.2,0.1,0.3c0.1,0,0.1,0,0.2,0
			c0,0.1,0.1,0.2,0.1,0.3c0.1,0,0.1,0,0.2,0c0,0.1,0.1,0.2,0.1,0.3c0.1,0,0.1,0,0.2,0c0,0.1,0.1,0.2,0.1,0.3c0.1,0,0.1,0,0.2,0
			c0,0.1,0.1,0.2,0.1,0.3c0.1,0,0.1,0,0.2,0c0,0.1,0.1,0.2,0.1,0.3c0.1,0,0.1,0,0.2,0c0,0.1,0.1,0.2,0.1,0.3c0.1,0,0.1,0,0.2,0
			c0,0.1,0.1,0.2,0.1,0.3c0.1,0,0.1,0,0.2,0c0,0.1,0.1,0.2,0.1,0.3c0.1,0,0.1,0,0.2,0c0,0.1,0.1,0.2,0.1,0.3c0.1,0,0.1,0,0.2,0
			c0,0.1,0.1,0.2,0.1,0.3c0.1,0,0.1,0,0.2,0c0,0.1,0.1,0.2,0.1,0.3c0.1,0,0.1,0,0.2,0c0,0.1,0.1,0.2,0.1,0.3c0.1,0,0.1,0,0.2,0
			c0,0.1,0.1,0.2,0.1,0.3c0.1,0,0.1,0,0.2,0c0,0.1,0.1,0.2,0.1,0.3c0.1,0,0.1,0,0.2,0c0,0.1,0.1,0.2,0.1,0.3c0.1,0,0.1,0,0.2,0
			c0,0.1,0.1,0.2,0.1,0.3c0.1,0,0.1,0,0.2,0c0,0.1,0.1,0.2,0.1,0.3c0.1,0,0.1,0,0.2,0c0,0.1,0.1,0.2,0.1,0.3c0.1,0,0.1,0,0.2,0
			c0,0.1,0.1,0.2,0.1,0.3C1042.2,309.9,1056.6,312.7,1071,315.7z"/>
		<path d="M168.7,51.4c-0.1,0-0.2,0-0.3,0c0-0.1,0-0.2,0-0.3c-0.1,0-0.2,0-0.3,0c0-0.1,0-0.2,0-0.3c-0.1,0-0.2,0-0.3,0
			c0-0.1,0-0.2,0-0.3c-0.1,0-0.2,0-0.3,0c0-0.1,0-0.2,0-0.3c-0.1,0-0.2,0-0.3,0c0-0.1,0-0.2,0-0.3c-0.1,0-0.2,0-0.3,0
			c0-0.1,0-0.2,0-0.3c-0.1,0-0.2,0-0.3,0c0-0.1,0-0.2,0-0.3c-0.1,0-0.2,0-0.3,0c0-0.1,0-0.2,0-0.3c-0.1,0-0.2,0-0.3,0
			c0-0.1,0-0.2,0-0.3c-0.1,0-0.2,0-0.3,0c0-0.1,0-0.2,0-0.3c-0.1,0-0.2,0-0.3,0c0-0.1,0-0.2,0-0.3c-0.1,0-0.2,0-0.3,0
			c0-0.1,0-0.2,0-0.3c-0.1,0-0.2,0-0.3,0c0-0.1,0-0.2,0-0.3c-0.1,0-0.2,0-0.3,0c0-0.1,0-0.2,0-0.3c-0.1,0-0.2,0-0.3,0
			c0-0.1,0-0.2,0-0.3c-0.1,0-0.2,0-0.3,0c0-0.1,0-0.2,0-0.3c-0.1,0-0.2,0-0.3,0c0-0.1,0-0.2,0-0.3c-0.1,0-0.2,0-0.3,0
			c0-0.1,0-0.2,0-0.3c-0.1,0-0.2,0-0.3,0c0-0.1,0-0.2,0-0.3c-0.1,0-0.2,0-0.3,0c0-0.1,0-0.2,0-0.3c-0.1,0-0.2,0-0.3,0
			c0-0.1,0-0.2,0-0.3c-0.1,0-0.2,0-0.3,0c0-0.1,0-0.2,0-0.3c-0.1,0-0.2,0-0.3,0c0-0.1,0-0.2,0-0.3c-0.1,0-0.2,0-0.3,0
			c0-0.1,0-0.2,0-0.3c-0.1,0-0.2,0-0.3,0c0-0.1,0-0.2,0-0.3c-0.1,0-0.2,0-0.3,0c0-0.1,0-0.2,0-0.3c-0.1,0-0.2,0-0.3,0
			c0-0.1,0-0.2,0-0.3c-0.1,0-0.2,0-0.3,0c0-0.1,0-0.2,0-0.3c-0.1,0-0.2,0-0.3,0c0-0.1,0-0.2,0-0.3c-0.1,0-0.2,0-0.3,0
			c0-0.1,0-0.2,0-0.3c-0.1,0-0.2,0-0.3,0c0-0.1,0-0.2,0-0.3c-0.1,0-0.2,0-0.3,0c0-0.1,0-0.2,0-0.3c-0.1,0-0.2,0-0.3,0
			c0-0.1,0-0.2,0-0.3c-0.1,0-0.2,0-0.3,0c0-0.1,0-0.2,0-0.3c-0.1,0-0.2,0-0.3,0c0-0.1,0-0.2,0-0.3c-0.1,0-0.2,0-0.3,0
			c0-0.1,0-0.2,0-0.3c-0.1,0-0.2,0-0.3,0c0-0.1,0-0.2,0-0.3c-0.1,0-0.2,0-0.3,0c0-0.1,0-0.2,0-0.3c-0.1,0-0.2,0-0.3,0
			c0-0.1,0-0.2,0-0.3c-0.1,0-0.2,0-0.3,0c0-0.1,0-0.2,0-0.3c-0.1,0-0.2,0-0.3,0c0-0.1,0-0.2,0-0.3c-0.1,0-0.2,0-0.3,0
			c0-0.1,0-0.2,0-0.3c-0.1,0-0.2,0-0.3,0c0-0.1,0-0.2,0-0.3c-0.1,0-0.2,0-0.3,0c0-0.1,0-0.2,0-0.3c-0.1,0-0.2,0-0.3,0
			c0-0.1,0-0.2,0-0.3c-0.1,0-0.2,0-0.3,0c0-0.1,0-0.2,0-0.3c-0.1,0-0.2,0-0.3,0c0-0.1,0-0.2,0-0.3c-0.1,0-0.2,0-0.3,0
			c0-0.1,0-0.2,0-0.3c-0.1,0-0.2,0-0.3,0c0-0.1,0-0.2,0-0.3c-0.1,0-0.2,0-0.3,0c0-0.1,0-0.2,0-0.3c-12.3,0-24.6,0.1-36.9,0.1
			c-0.1,37.2-0.2,74.4-0.3,111.6c-8.5-31.4-17.1-63.3-25.7-95.8c-0.1,0-0.1,0-0.2,0c0-0.1-0.1-0.2-0.1-0.3c-0.1,0-0.1,0-0.2,0
			c0-0.1-0.1-0.2-0.1-0.3c-0.1,0-0.1,0-0.2,0c0-0.1-0.1-0.2-0.1-0.3c-0.1,0-0.1,0-0.2,0c0-0.1-0.1-0.2-0.1-0.3c-0.1,0-0.1,0-0.2,0
			c0-0.1-0.1-0.2-0.1-0.3c-0.1,0-0.1,0-0.2,0c0-0.1-0.1-0.2-0.1-0.3c-0.1,0-0.1,0-0.2,0c0-0.1-0.1-0.2-0.1-0.3c-0.1,0-0.1,0-0.2,0
			c0-0.1-0.1-0.2-0.1-0.3c-0.1,0-0.1,0-0.2,0c0-0.1-0.1-0.2-0.1-0.3c-0.1,0-0.1,0-0.2,0c0-0.1-0.1-0.2-0.1-0.3c-0.1,0-0.1,0-0.2,0
			c0-0.1-0.1-0.2-0.1-0.3c-0.1,0-0.1,0-0.2,0c0-0.1-0.1-0.2-0.1-0.3c-0.1,0-0.1,0-0.2,0c0-0.1-0.1-0.2-0.1-0.3c-0.1,0-0.1,0-0.2,0
			c0-0.1-0.1-0.2-0.1-0.3c-0.1,0-0.1,0-0.2,0c0-0.1-0.1-0.2-0.1-0.3c-0.1,0-0.1,0-0.2,0c0-0.1-0.1-0.2-0.1-0.3c-0.1,0-0.1,0-0.2,0
			c0-0.1-0.1-0.2-0.1-0.3c-0.1,0-0.1,0-0.2,0c0-0.1-0.1-0.2-0.1-0.3c-0.1,0-0.1,0-0.2,0c0-0.1-0.1-0.2-0.1-0.3c-0.1,0-0.1,0-0.2,0
			c0-0.1-0.1-0.2-0.1-0.3c-0.1,0-0.1,0-0.2,0c0-0.1-0.1-0.2-0.1-0.3c-0.1,0-0.1,0-0.2,0c0-0.1-0.1-0.2-0.1-0.3c-0.1,0-0.1,0-0.2,0
			c0-0.1-0.1-0.2-0.1-0.3c-0.1,0-0.1,0-0.2,0c0-0.1-0.1-0.2-0.1-0.3c-0.1,0-0.1,0-0.2,0c0-0.1-0.1-0.2-0.1-0.3c-0.1,0-0.1,0-0.2,0
			c0-0.1-0.1-0.2-0.1-0.3c-0.1,0-0.1,0-0.2,0c0-0.1-0.1-0.2-0.1-0.3c-0.1,0-0.1,0-0.2,0c0-0.1-0.1-0.2-0.1-0.3c-0.1,0-0.1,0-0.2,0
			c0-0.1-0.1-0.2-0.1-0.3c-0.1,0-0.1,0-0.2,0c0-0.1-0.1-0.2-0.1-0.3c-0.1,0-0.1,0-0.2,0c0-0.1-0.1-0.2-0.1-0.3c-0.1,0-0.1,0-0.2,0
			c0-0.1-0.1-0.2-0.1-0.3c-0.1,0-0.1,0-0.2,0c0-0.1-0.1-0.2-0.1-0.3c-0.1,0-0.1,0-0.2,0c0-0.1-0.1-0.2-0.1-0.3c-0.1,0-0.1,0-0.2,0
			c0-0.1-0.1-0.2-0.1-0.3c-0.1,0-0.1,0-0.2,0c0-0.1-0.1-0.2-0.1-0.3c-0.1,0-0.1,0-0.2,0c0-0.1-0.1-0.2-0.1-0.3c-0.1,0-0.1,0-0.2,0
			c0-0.1-0.1-0.2-0.1-0.3c-0.1,0-0.1,0-0.2,0c0-0.1-0.1-0.2-0.1-0.3c-0.1,0-0.1,0-0.2,0c0-0.1-0.1-0.2-0.1-0.3c-0.1,0-0.1,0-0.2,0
			c0-0.1-0.1-0.2-0.1-0.3c-0.1,0-0.1,0-0.2,0c0-0.1-0.1-0.2-0.1-0.3c-0.1,0-0.1,0-0.2,0c0-0.1-0.1-0.2-0.1-0.3c-0.1,0-0.1,0-0.2,0
			c0-0.1-0.1-0.2-0.1-0.3c-0.1,0-0.1,0-0.2,0c0-0.1-0.1-0.2-0.1-0.3c-0.1,0-0.1,0-0.2,0c0-0.1-0.1-0.2-0.1-0.3c-0.1,0-0.1,0-0.2,0
			c0-0.1-0.1-0.2-0.1-0.3c-0.1,0-0.1,0-0.2,0c0-0.1-0.1-0.2-0.1-0.3c-0.1,0-0.1,0-0.2,0c0-0.1-0.1-0.2-0.1-0.3c-0.1,0-0.1,0-0.2,0
			c0-0.1-0.1-0.2-0.1-0.3c-0.1,0-0.1,0-0.2,0c0-0.1-0.1-0.2-0.1-0.3c-17.3,0-34.6,0.1-52,0.1c0,87.9,0,175.8,0,263.6
			c0.1,0,0.2,0,0.3-0.1c0,0.1,0,0.2,0,0.4c0.1,0,0.2,0,0.3-0.1c0,0.1,0,0.2,0,0.4c0.1,0,0.2,0,0.3-0.1c0,0.1,0,0.2,0,0.4
			c0.1,0,0.2,0,0.3-0.1c0,0.1,0,0.2,0,0.4c0.1,0,0.2,0,0.3-0.1c0,0.1,0,0.2,0,0.4c0.1,0,0.2,0,0.3-0.1c0,0.1,0,0.2,0,0.4
			c0.1,0,0.2,0,0.3-0.1c0,0.1,0,0.2,0,0.4c0.1,0,0.2,0,0.3-0.1c0,0.1,0,0.2,0,0.4c0.1,0,0.2,0,0.3-0.1c0,0.1,0,0.2,0,0.4
			c0.1,0,0.2,0,0.3-0.1c0,0.1,0,0.2,0,0.4c0.1,0,0.2,0,0.3-0.1c0,0.1,0,0.2,0,0.4c0.1,0,0.2,0,0.3-0.1c0,0.1,0,0.2,0,0.4
			c0.1,0,0.2,0,0.3-0.1c0,0.1,0,0.2,0,0.4c0.1,0,0.2,0,0.3-0.1c0,0.1,0,0.2,0,0.4c0.1,0,0.2,0,0.3-0.1c0,0.1,0,0.2,0,0.4
			c0.1,0,0.2,0,0.3-0.1c0,0.1,0,0.2,0,0.4c0.1,0,0.2,0,0.3-0.1c0,0.1,0,0.2,0,0.4c0.1,0,0.2,0,0.3-0.1c0,0.1,0,0.2,0,0.4
			c0.1,0,0.2,0,0.3-0.1c0,0.1,0,0.2,0,0.4c0.1,0,0.2,0,0.3-0.1c0,0.1,0,0.2,0,0.4c0.1,0,0.2,0,0.3-0.1c0,0.1,0,0.2,0,0.4
			c0.1,0,0.2,0,0.3-0.1c0,0.1,0,0.2,0,0.4c0.1,0,0.2,0,0.3-0.1c0,0.1,0,0.2,0,0.4c0.1,0,0.2,0,0.3-0.1c0,0.1,0,0.2,0,0.4
			c0.1,0,0.2,0,0.3-0.1c0,0.1,0,0.2,0,0.4c0.1,0,0.2,0,0.3-0.1c0,0.1,0,0.2,0,0.4c0.1,0,0.2,0,0.3-0.1c0,0.1,0,0.2,0,0.4
			c0.1,0,0.2,0,0.3-0.1c0,0.1,0,0.2,0,0.4c0.1,0,0.2,0,0.3-0.1c0,0.1,0,0.2,0,0.4c0.1,0,0.2,0,0.3-0.1c0,0.1,0,0.2,0,0.4
			c0.1,0,0.2,0,0.3-0.1c0,0.1,0,0.2,0,0.4c0.1,0,0.2,0,0.3-0.1c0,0.1,0,0.2,0,0.4c0.1,0,0.2,0,0.3-0.1c0,0.1,0,0.2,0,0.4
			c0.1,0,0.2,0,0.3-0.1c0,0.1,0,0.2,0,0.4c0.1,0,0.2,0,0.3-0.1c0,0.1,0,0.2,0,0.4c0.1,0,0.2,0,0.3-0.1c0,0.1,0,0.2,0,0.4
			c0.1,0,0.2,0,0.3-0.1c0,0.1,0,0.2,0,0.4c0.1,0,0.2,0,0.3-0.1c0,0.1,0,0.2,0,0.4c0.1,0,0.2,0,0.3-0.1c0,0.1,0,0.2,0,0.4
			c0.1,0,0.2,0,0.3-0.1c0,0.1,0,0.2,0,0.4c0.1,0,0.2,0,0.3-0.1c0,0.1,0,0.2,0,0.4c0.1,0,0.2,0,0.3-0.1c0,0.1,0,0.2,0,0.4
			c0.1,0,0.2,0,0.3-0.1c0,0.1,0,0.2,0,0.4c0.1,0,0.2,0,0.3-0.1c0,0.1,0,0.2,0,0.4c0.1,0,0.2,0,0.3-0.1c0,0.1,0,0.2,0,0.4
			c0.1,0,0.2,0,0.3-0.1c0,0.1,0,0.2,0,0.4c0.1,0,0.2,0,0.3-0.1c0,0.1,0,0.2,0,0.4c0.1,0,0.2,0,0.3-0.1c0,0.1,0,0.2,0,0.4
			c0.1,0,0.2,0,0.3-0.1c0,0.1,0,0.2,0,0.4c0.1,0,0.2,0,0.3-0.1c0,0.1,0,0.2,0,0.4c0.1,0,0.2,0,0.3-0.1c0,0.1,0,0.2,0,0.4
			c12.2-2.5,24.4-4.9,36.6-7.2c0.1-50,0.1-100,0.2-150.1c11.7,42.8,23.3,84.6,34.9,125.5c0.1,0,0.1,0,0.2,0c0,0.1,0.1,0.2,0.1,0.3
			c0.1,0,0.1,0,0.2,0c0,0.1,0.1,0.2,0.1,0.3c0.1,0,0.1,0,0.2,0c0,0.1,0.1,0.2,0.1,0.3c0.1,0,0.1,0,0.2,0c0,0.1,0.1,0.2,0.1,0.3
			c0.1,0,0.1,0,0.2,0c0,0.1,0.1,0.2,0.1,0.3c0.1,0,0.1,0,0.2,0c0,0.1,0.1,0.2,0.1,0.3c0.1,0,0.1,0,0.2,0c0,0.1,0.1,0.2,0.1,0.3
			c0.1,0,0.1,0,0.2,0c0,0.1,0.1,0.2,0.1,0.3c0.1,0,0.1,0,0.2,0c0,0.1,0.1,0.2,0.1,0.3c0.1,0,0.1,0,0.2,0c0,0.1,0.1,0.2,0.1,0.3
			c0.1,0,0.1,0,0.2,0c0,0.1,0.1,0.2,0.1,0.3c0.1,0,0.1,0,0.2,0c0,0.1,0.1,0.2,0.1,0.3c0.1,0,0.1,0,0.2,0c0,0.1,0.1,0.2,0.1,0.3
			c0.1,0,0.1,0,0.2,0c0,0.1,0.1,0.2,0.1,0.3c0.1,0,0.1,0,0.2,0c0,0.1,0.1,0.2,0.1,0.3c0.1,0,0.1,0,0.2,0c0,0.1,0.1,0.2,0.1,0.3
			c0.1,0,0.1,0,0.2,0c0,0.1,0.1,0.2,0.1,0.3c0.1,0,0.1,0,0.2,0c0,0.1,0.1,0.2,0.1,0.3c0.1,0,0.1,0,0.2,0c0,0.1,0.1,0.2,0.1,0.3
			c0.1,0,0.1,0,0.2,0c0,0.1,0.1,0.2,0.1,0.3c0.1,0,0.1,0,0.2,0c0,0.1,0.1,0.2,0.1,0.3c0.1,0,0.1,0,0.2,0c0,0.1,0.1,0.2,0.1,0.3
			c0.1,0,0.1,0,0.2,0c0,0.1,0.1,0.2,0.1,0.3c0.1,0,0.1,0,0.2,0c0,0.1,0.1,0.2,0.1,0.3c0.1,0,0.1,0,0.2,0c0,0.1,0.1,0.2,0.1,0.3
			c0.1,0,0.1,0,0.2,0c0,0.1,0.1,0.2,0.1,0.3c0.1,0,0.1,0,0.2,0c0,0.1,0.1,0.2,0.1,0.3c0.1,0,0.1,0,0.2,0c0,0.1,0.1,0.2,0.1,0.3
			c0.1,0,0.1,0,0.2,0c0,0.1,0.1,0.2,0.1,0.3c0.1,0,0.1,0,0.2,0c0,0.1,0.1,0.2,0.1,0.3c0.1,0,0.1,0,0.2,0c0,0.1,0.1,0.2,0.1,0.3
			c0.1,0,0.1,0,0.2,0c0,0.1,0.1,0.2,0.1,0.3c0.1,0,0.1,0,0.2,0c0,0.1,0.1,0.2,0.1,0.3c0.1,0,0.1,0,0.2,0c0,0.1,0.1,0.2,0.1,0.3
			c0.1,0,0.1,0,0.2,0c0,0.1,0.1,0.2,0.1,0.3c0.1,0,0.1,0,0.2,0c0,0.1,0.1,0.2,0.1,0.3c0.1,0,0.1,0,0.2,0c0,0.1,0.1,0.2,0.1,0.3
			c0.1,0,0.1,0,0.2,0c0,0.1,0.1,0.2,0.1,0.3c0.1,0,0.1,0,0.2,0c0,0.1,0.1,0.2,0.1,0.3c0.1,0,0.1,0,0.2,0c0,0.1,0.1,0.2,0.1,0.3
			c0.1,0,0.1,0,0.2,0c0,0.1,0.1,0.2,0.1,0.3c0.1,0,0.1,0,0.2,0c0,0.1,0.1,0.2,0.1,0.3c0.1,0,0.1,0,0.2,0c0,0.1,0.1,0.2,0.1,0.3
			c0.1,0,0.1,0,0.2,0c0,0.1,0.1,0.2,0.1,0.3c0.1,0,0.1,0,0.2,0c0,0.1,0.1,0.2,0.1,0.3c0.1,0,0.1,0,0.2,0c0,0.1,0.1,0.2,0.1,0.3
			c0.1,0,0.1,0,0.2,0c0,0.1,0.1,0.2,0.1,0.3c0.1,0,0.1,0,0.2,0c0,0.1,0.1,0.2,0.1,0.3c0.1,0,0.1,0,0.2,0c0,0.1,0.1,0.2,0.1,0.3
			c0.1,0,0.1,0,0.2,0c0,0.1,0.1,0.2,0.1,0.3c0.1,0,0.1,0,0.2,0c0,0.1,0.1,0.2,0.1,0.3c14.1-2.4,28.2-4.6,42.4-6.8
			c0.3-80.3,0.6-160.7,0.9-241c-0.1,0-0.2,0-0.3,0C168.7,51.6,168.7,51.5,168.7,51.4z"/>
		<path d="M312.6,51.2c-0.1,0-0.2,0-0.3,0c0-0.1,0-0.2,0-0.3c-0.1,0-0.2,0-0.3,0c0-0.1,0-0.2,0-0.3c-0.1,0-0.2,0-0.3,0
			c0-0.1,0-0.2,0-0.3c-0.1,0-0.2,0-0.3,0c0-0.1,0-0.2,0-0.3c-0.1,0-0.2,0-0.3,0c0-0.1,0-0.2,0-0.3c-0.1,0-0.2,0-0.3,0
			c0-0.1,0-0.2,0-0.3c-0.1,0-0.2,0-0.3,0c0-0.1,0-0.2,0-0.3c-0.1,0-0.2,0-0.3,0c0-0.1,0-0.2,0-0.3c-0.1,0-0.2,0-0.3,0
			c0-0.1,0-0.2,0-0.3c-0.1,0-0.2,0-0.3,0c0-0.1,0-0.2,0-0.3c-0.1,0-0.2,0-0.3,0c0-0.1,0-0.2,0-0.3c-0.1,0-0.2,0-0.3,0
			c0-0.1,0-0.2,0-0.3c-0.1,0-0.2,0-0.3,0c0-0.1,0-0.2,0-0.3c-0.1,0-0.2,0-0.3,0c0-0.1,0-0.2,0-0.3c-0.1,0-0.2,0-0.3,0
			c0-0.1,0-0.2,0-0.3c-0.1,0-0.2,0-0.3,0c0-0.1,0-0.2,0-0.3c-0.1,0-0.2,0-0.3,0c0-0.1,0-0.2,0-0.3c-0.1,0-0.2,0-0.3,0
			c0-0.1,0-0.2,0-0.3c-0.1,0-0.2,0-0.3,0c0-0.1,0-0.2,0-0.3c-0.1,0-0.2,0-0.3,0c0-0.1,0-0.2,0-0.3c-0.1,0-0.2,0-0.3,0
			c0-0.1,0-0.2,0-0.3c-0.1,0-0.2,0-0.3,0c0-0.1,0-0.2,0-0.3c-0.1,0-0.2,0-0.3,0c0-0.1,0-0.2,0-0.3c-0.1,0-0.2,0-0.3,0
			c0-0.1,0-0.2,0-0.3c-0.1,0-0.2,0-0.3,0c0-0.1,0-0.2,0-0.3c-0.1,0-0.2,0-0.3,0c0-0.1,0-0.2,0-0.3c-0.1,0-0.2,0-0.3,0
			c0-0.1,0-0.2,0-0.3c-0.1,0-0.2,0-0.3,0c0-0.1,0-0.2,0-0.3c-0.1,0-0.2,0-0.3,0c0-0.1,0-0.2,0-0.3c-0.1,0-0.2,0-0.3,0
			c0-0.1,0-0.2,0-0.3c-0.1,0-0.2,0-0.3,0c0-0.1,0-0.2,0-0.3c-0.1,0-0.2,0-0.3,0c0-0.1,0-0.2,0-0.3c-0.1,0-0.2,0-0.3,0
			c0-0.1,0-0.2,0-0.3c-0.1,0-0.2,0-0.3,0c0-0.1,0-0.2,0-0.3c-0.1,0-0.2,0-0.3,0c0-0.1,0-0.2,0-0.3c-0.1,0-0.2,0-0.3,0
			c0-0.1,0-0.2,0-0.3c-0.1,0-0.2,0-0.3,0c0-0.1,0-0.2,0-0.3c-0.1,0-0.2,0-0.3,0c0-0.1,0-0.2,0-0.3c-0.1,0-0.2,0-0.3,0
			c0-0.1,0-0.2,0-0.3c-0.1,0-0.2,0-0.3,0c0-0.1,0-0.2,0-0.3c-0.1,0-0.2,0-0.3,0c0-0.1,0-0.2,0-0.3c-0.1,0-0.2,0-0.3,0
			c0-0.1,0-0.2,0-0.3c-0.1,0-0.2,0-0.3,0c0-0.1,0-0.2,0-0.3c-0.1,0-0.2,0-0.3,0c0-0.1,0-0.2,0-0.3c-0.1,0-0.2,0-0.3,0
			c0-0.1,0-0.2,0-0.3c-0.1,0-0.2,0-0.3,0c0-0.1,0-0.2,0-0.3c-0.1,0-0.2,0-0.3,0c0-0.1,0-0.2,0-0.3c-0.1,0-0.2,0-0.3,0
			c0-0.1,0-0.2,0-0.3c-0.1,0-0.2,0-0.3,0c0-0.1,0-0.2,0-0.3c-0.1,0-0.2,0-0.3,0c0-0.1,0-0.2,0-0.3c-37.7,0.1-75.3,0.1-113,0.2
			c-0.3,78.9-0.6,157.7-1,236.6c0.1,0,0.2,0,0.3,0c0,0.1,0,0.2,0,0.3c0.1,0,0.2,0,0.3,0c0,0.1,0,0.2,0,0.3c0.1,0,0.2,0,0.3,0
			c0,0.1,0,0.2,0,0.3c0.1,0,0.2,0,0.3,0c0,0.1,0,0.2,0,0.3c0.1,0,0.2,0,0.3,0c0,0.1,0,0.2,0,0.3c0.1,0,0.2,0,0.3,0
			c0,0.1,0,0.2,0,0.3c0.1,0,0.2,0,0.3,0c0,0.1,0,0.2,0,0.3c0.1,0,0.2,0,0.3,0c0,0.1,0,0.2,0,0.3c0.1,0,0.2,0,0.3,0
			c0,0.1,0,0.2,0,0.3c0.1,0,0.2,0,0.3,0c0,0.1,0,0.2,0,0.3c0.1,0,0.2,0,0.3,0c0,0.1,0,0.2,0,0.3c0.1,0,0.2,0,0.3,0
			c0,0.1,0,0.2,0,0.3c0.1,0,0.2,0,0.3,0c0,0.1,0,0.2,0,0.3c0.1,0,0.2,0,0.3,0c0,0.1,0,0.2,0,0.3c0.1,0,0.2,0,0.3,0
			c0,0.1,0,0.2,0,0.3c0.1,0,0.2,0,0.3,0c0,0.1,0,0.2,0,0.3c0.1,0,0.2,0,0.3,0c0,0.1,0,0.2,0,0.3c0.1,0,0.2,0,0.3,0
			c0,0.1,0,0.2,0,0.3c0.1,0,0.2,0,0.3,0c0,0.1,0,0.2,0,0.3c0.1,0,0.2,0,0.3,0c0,0.1,0,0.2,0,0.3c0.1,0,0.2,0,0.3,0
			c0,0.1,0,0.2,0,0.3c0.1,0,0.2,0,0.3,0c0,0.1,0,0.2,0,0.3c0.1,0,0.2,0,0.3,0c0,0.1,0,0.2,0,0.3c0.1,0,0.2,0,0.3,0
			c0,0.1,0,0.2,0,0.3c0.1,0,0.2,0,0.3,0c0,0.1,0,0.2,0,0.3c0.1,0,0.2,0,0.3,0c0,0.1,0,0.2,0,0.3c0.1,0,0.2,0,0.3,0
			c0,0.1,0,0.2,0,0.3c0.1,0,0.2,0,0.3,0c0,0.1,0,0.2,0,0.3c0.1,0,0.2,0,0.3,0c0,0.1,0,0.2,0,0.3c0.1,0,0.2,0,0.3,0
			c0,0.1,0,0.2,0,0.3c0.1,0,0.2,0,0.3,0c0,0.1,0,0.2,0,0.3c0.1,0,0.2,0,0.3,0c0,0.1,0,0.2,0,0.3c0.1,0,0.2,0,0.3,0
			c0,0.1,0,0.2,0,0.3c0.1,0,0.2,0,0.3,0c0,0.1,0,0.2,0,0.3c0.1,0,0.2,0,0.3,0c0,0.1,0,0.2,0,0.3c0.1,0,0.2,0,0.3,0
			c0,0.1,0,0.2,0,0.3c0.1,0,0.2,0,0.3,0c0,0.1,0,0.2,0,0.3c0.1,0,0.2,0,0.3,0c0,0.1,0,0.2,0,0.3c0.1,0,0.2,0,0.3,0
			c0,0.1,0,0.2,0,0.3c0.1,0,0.2,0,0.3,0c0,0.1,0,0.2,0,0.3c0.1,0,0.2,0,0.3,0c0,0.1,0,0.2,0,0.3c0.1,0,0.2,0,0.3,0
			c0,0.1,0,0.2,0,0.3c0.1,0,0.2,0,0.3,0c0,0.1,0,0.2,0,0.3c0.1,0,0.2,0,0.3,0c0,0.1,0,0.2,0,0.3c0.1,0,0.2,0,0.3,0
			c0,0.1,0,0.2,0,0.3c0.1,0,0.2,0,0.3,0c0,0.1,0,0.2,0,0.3c0.1,0,0.2,0,0.3,0c0,0.1,0,0.2,0,0.3c0.1,0,0.2,0,0.3,0
			c0,0.1,0,0.2,0,0.3c0.1,0,0.2,0,0.3,0c0,0.1,0,0.2,0,0.3c0.1,0,0.2,0,0.3,0c0,0.1,0,0.2,0,0.3c0.1,0,0.2,0,0.3,0
			c0,0.1,0,0.2,0,0.3c37.6-5.2,75.2-9.6,113-13.2c0-10.6,0.1-21.3,0.1-31.9c-0.1,0-0.2,0-0.3,0c0-0.1,0-0.2,0-0.3
			c-0.1,0-0.2,0-0.3,0c0-0.1,0-0.2,0-0.3c-0.1,0-0.2,0-0.3,0c0-0.1,0-0.2,0-0.3c-0.1,0-0.2,0-0.3,0c0-0.1,0-0.2,0-0.3
			c-0.1,0-0.2,0-0.3,0c0-0.1,0-0.2,0-0.3c-0.1,0-0.2,0-0.3,0c0-0.1,0-0.2,0-0.3c-0.1,0-0.2,0-0.3,0c0-0.1,0-0.2,0-0.3
			c-0.1,0-0.2,0-0.3,0c0-0.1,0-0.2,0-0.3c-0.1,0-0.2,0-0.3,0c0-0.1,0-0.2,0-0.3c-0.1,0-0.2,0-0.3,0c0-0.1,0-0.2,0-0.3
			c-0.1,0-0.2,0-0.3,0c0-0.1,0-0.2,0-0.3c-0.1,0-0.2,0-0.3,0c0-0.1,0-0.2,0-0.3c-0.1,0-0.2,0-0.3,0c0-0.1,0-0.2,0-0.3
			c-0.1,0-0.2,0-0.3,0c0-0.1,0-0.2,0-0.3c-0.1,0-0.2,0-0.3,0c0-0.1,0-0.2,0-0.3c-0.1,0-0.2,0-0.3,0c0-0.1,0-0.2,0-0.3
			c-0.1,0-0.2,0-0.3,0c0-0.1,0-0.2,0-0.3c-0.1,0-0.2,0-0.3,0c0-0.1,0-0.2,0-0.3c-0.1,0-0.2,0-0.3,0c0-0.1,0-0.2,0-0.3
			c-0.1,0-0.2,0-0.3,0c0-0.1,0-0.2,0-0.3c-0.1,0-0.2,0-0.3,0c0-0.1,0-0.2,0-0.3c-0.1,0-0.2,0-0.3,0c0-0.1,0-0.2,0-0.3
			c-0.1,0-0.2,0-0.3,0c0-0.1,0-0.2,0-0.3c-0.1,0-0.2,0-0.3,0c0-0.1,0-0.2,0-0.3c-0.1,0-0.2,0-0.3,0c0-0.1,0-0.2,0-0.3
			c-0.1,0-0.2,0-0.3,0c0-0.1,0-0.2,0-0.3c-0.1,0-0.2,0-0.3,0c0-0.1,0-0.2,0-0.3c-0.1,0-0.2,0-0.3,0c0-0.1,0-0.2,0-0.3
			c-0.1,0-0.2,0-0.3,0c0-0.1,0-0.2,0-0.3c-0.1,0-0.2,0-0.3,0c0-0.1,0-0.2,0-0.3c-0.1,0-0.2,0-0.3,0c0-0.1,0-0.2,0-0.3
			c-0.1,0-0.2,0-0.3,0c0-0.1,0-0.2,0-0.3c-0.1,0-0.2,0-0.3,0c0-0.1,0-0.2,0-0.3c-0.1,0-0.2,0-0.3,0c0-0.1,0-0.2,0-0.3
			c-0.1,0-0.2,0-0.3,0c0-0.1,0-0.2,0-0.3c-0.1,0-0.2,0-0.3,0c0-0.1,0-0.2,0-0.3c-0.1,0-0.2,0-0.3,0c0-0.1,0-0.2,0-0.3
			c-0.1,0-0.2,0-0.3,0c0-0.1,0-0.2,0-0.3c-0.1,0-0.2,0-0.3,0c0-0.1,0-0.2,0-0.3c-0.1,0-0.2,0-0.3,0c0-0.1,0-0.2,0-0.3
			c-0.1,0-0.2,0-0.3,0c0-0.1,0-0.2,0-0.3c-0.1,0-0.2,0-0.3,0c0-0.1,0-0.2,0-0.3c-0.1,0-0.2,0-0.3,0c0-0.1,0-0.2,0-0.3
			c-0.1,0-0.2,0-0.3,0c0-0.1,0-0.2,0-0.3c-0.1,0-0.2,0-0.3,0c0-0.1,0-0.2,0-0.3c-0.1,0-0.2,0-0.3,0c0-0.1,0-0.2,0-0.3
			c-0.1,0-0.2,0-0.3,0c0-0.1,0-0.2,0-0.3c-0.1,0-0.2,0-0.3,0c0-0.1,0-0.2,0-0.3c-0.1,0-0.2,0-0.3,0c0-0.1,0-0.2,0-0.3
			c-0.1,0-0.2,0-0.3,0c0-0.1,0-0.2,0-0.3c-0.1,0-0.2,0-0.3,0c0-0.1,0-0.2,0-0.3c-18.8,1.5-37.6,3.2-56.5,5.1
			c0.1-17.9,0.2-35.9,0.2-53.8c19-1.3,37.9-2.5,56.9-3.5c0-10.7,0.1-21.4,0.1-32.1c-0.1,0-0.2,0-0.3,0c0-0.1,0-0.2,0-0.3
			c-0.1,0-0.2,0-0.3,0c0-0.1,0-0.2,0-0.3c-0.1,0-0.2,0-0.3,0c0-0.1,0-0.2,0-0.3c-0.1,0-0.2,0-0.3,0c0-0.1,0-0.2,0-0.3
			c-0.1,0-0.2,0-0.3,0c0-0.1,0-0.2,0-0.3c-0.1,0-0.2,0-0.3,0c0-0.1,0-0.2,0-0.3c-0.1,0-0.2,0-0.3,0c0-0.1,0-0.2,0-0.3
			c-0.1,0-0.2,0-0.3,0c0-0.1,0-0.2,0-0.3c-0.1,0-0.2,0-0.3,0c0-0.1,0-0.2,0-0.3c-0.1,0-0.2,0-0.3,0c0-0.1,0-0.2,0-0.3
			c-0.1,0-0.2,0-0.3,0c0-0.1,0-0.2,0-0.3c-0.1,0-0.2,0-0.3,0c0-0.1,0-0.2,0-0.3c-0.1,0-0.2,0-0.3,0c0-0.1,0-0.2,0-0.3
			c-0.1,0-0.2,0-0.3,0c0-0.1,0-0.2,0-0.3c-0.1,0-0.2,0-0.3,0c0-0.1,0-0.2,0-0.3c-0.1,0-0.2,0-0.3,0c0-0.1,0-0.2,0-0.3
			c-0.1,0-0.2,0-0.3,0c0-0.1,0-0.2,0-0.3c-0.1,0-0.2,0-0.3,0c0-0.1,0-0.2,0-0.3c-0.1,0-0.2,0-0.3,0c0-0.1,0-0.2,0-0.3
			c-0.1,0-0.2,0-0.3,0c0-0.1,0-0.2,0-0.3c-0.1,0-0.2,0-0.3,0c0-0.1,0-0.2,0-0.3c-0.1,0-0.2,0-0.3,0c0-0.1,0-0.2,0-0.3
			c-0.1,0-0.2,0-0.3,0c0-0.1,0-0.2,0-0.3c-0.1,0-0.2,0-0.3,0c0-0.1,0-0.2,0-0.3c-0.1,0-0.2,0-0.3,0c0-0.1,0-0.2,0-0.3
			c-0.1,0-0.2,0-0.3,0c0-0.1,0-0.2,0-0.3c-0.1,0-0.2,0-0.3,0c0-0.1,0-0.2,0-0.3c-0.1,0-0.2,0-0.3,0c0-0.1,0-0.2,0-0.3
			c-0.1,0-0.2,0-0.3,0c0-0.1,0-0.2,0-0.3c-0.1,0-0.2,0-0.3,0c0-0.1,0-0.2,0-0.3c-0.1,0-0.2,0-0.3,0c0-0.1,0-0.2,0-0.3
			c-0.1,0-0.2,0-0.3,0c0-0.1,0-0.2,0-0.3c-0.1,0-0.2,0-0.3,0c0-0.1,0-0.2,0-0.3c-0.1,0-0.2,0-0.3,0c0-0.1,0-0.2,0-0.3
			c-0.1,0-0.2,0-0.3,0c0-0.1,0-0.2,0-0.3c-0.1,0-0.2,0-0.3,0c0-0.1,0-0.2,0-0.3c-0.1,0-0.2,0-0.3,0c0-0.1,0-0.2,0-0.3
			c-0.1,0-0.2,0-0.3,0c0-0.1,0-0.2,0-0.3c-0.1,0-0.2,0-0.3,0c0-0.1,0-0.2,0-0.3c-0.1,0-0.2,0-0.3,0c0-0.1,0-0.2,0-0.3
			c-0.1,0-0.2,0-0.3,0c0-0.1,0-0.2,0-0.3c-0.1,0-0.2,0-0.3,0c0-0.1,0-0.2,0-0.3c-0.1,0-0.2,0-0.3,0c0-0.1,0-0.2,0-0.3
			c-0.1,0-0.2,0-0.3,0c0-0.1,0-0.2,0-0.3c-0.1,0-0.2,0-0.3,0c0-0.1,0-0.2,0-0.3c-0.1,0-0.2,0-0.3,0c0-0.1,0-0.2,0-0.3
			c-0.1,0-0.2,0-0.3,0c0-0.1,0-0.2,0-0.3c-0.1,0-0.2,0-0.3,0c0-0.1,0-0.2,0-0.3c-0.1,0-0.2,0-0.3,0c0-0.1,0-0.2,0-0.3
			c-0.1,0-0.2,0-0.3,0c0-0.1,0-0.2,0-0.3c-0.1,0-0.2,0-0.3,0c0-0.1,0-0.2,0-0.3c-13.9,0.6-27.8,1.2-41.7,1.9
			c0.1-14.9,0.1-29.8,0.2-44.7c23.9-0.5,47.7-0.9,71.6-1.2c0-10.6,0.1-21.3,0.1-31.9c-0.1,0-0.2,0-0.3,0
			C312.6,51.4,312.6,51.3,312.6,51.2z"/>
		<path d="M445.5,234.9c-0.1,0-0.2,0-0.3,0c0-0.1,0-0.2,0-0.3c-0.1,0-0.2,0-0.3,0c0-0.1,0-0.2,0-0.3c-0.1,0-0.2,0-0.3,0
			c0-0.1,0-0.2,0-0.3c-0.1,0-0.2,0-0.3,0c0-0.1,0-0.2,0-0.3c-0.1,0-0.2,0-0.3,0c0-0.1,0-0.2,0-0.3c-0.1,0-0.2,0-0.3,0
			c0-0.1,0-0.2,0-0.3c-0.1,0-0.2,0-0.3,0c0-0.1,0-0.2,0-0.3c-0.1,0-0.2,0-0.3,0c0-0.1,0-0.2,0-0.3c-0.1,0-0.2,0-0.3,0
			c0-0.1,0-0.2,0-0.3c-0.1,0-0.2,0-0.3,0c0-0.1,0-0.2,0-0.3c-0.1,0-0.2,0-0.3,0c0-0.1,0-0.2,0-0.3c-0.1,0-0.2,0-0.3,0
			c0-0.1,0-0.2,0-0.3c-0.1,0-0.2,0-0.3,0c0-0.1,0-0.2,0-0.3c-0.1,0-0.2,0-0.3,0c0-0.1,0-0.2,0-0.3c-0.1,0-0.2,0-0.3,0
			c0-0.1,0-0.2,0-0.3c-0.1,0-0.2,0-0.3,0c0-0.1,0-0.2,0-0.3c-0.1,0-0.2,0-0.3,0c0-0.1,0-0.2,0-0.3c-0.1,0-0.2,0-0.3,0
			c0-0.1,0-0.2,0-0.3c-0.1,0-0.2,0-0.3,0c0-0.1,0-0.2,0-0.3c-0.1,0-0.2,0-0.3,0c0-0.1,0-0.2,0-0.3c-0.1,0-0.2,0-0.3,0
			c0-0.1,0-0.2,0-0.3c-0.1,0-0.2,0-0.3,0c0-0.1,0-0.2,0-0.3c-0.1,0-0.2,0-0.3,0c0-0.1,0-0.2,0-0.3c-0.1,0-0.2,0-0.3,0
			c0-0.1,0-0.2,0-0.3c-0.1,0-0.2,0-0.3,0c0-0.1,0-0.2,0-0.3c-0.1,0-0.2,0-0.3,0c0-0.1,0-0.2,0-0.3c-0.1,0-0.2,0-0.3,0
			c0-0.1,0-0.2,0-0.3c-0.1,0-0.2,0-0.3,0c0-0.1,0-0.2,0-0.3c-0.1,0-0.2,0-0.3,0c0-0.1,0-0.2,0-0.3c-0.1,0-0.2,0-0.3,0
			c0-0.1,0-0.2,0-0.3c-0.1,0-0.2,0-0.3,0c0-0.1,0-0.2,0-0.3c-0.1,0-0.2,0-0.3,0c0-0.1,0-0.2,0-0.3c-0.1,0-0.2,0-0.3,0
			c0-0.1,0-0.2,0-0.3c-0.1,0-0.2,0-0.3,0c0-0.1,0-0.2,0-0.3c-0.1,0-0.2,0-0.3,0c0-0.1,0-0.2,0-0.3c-0.1,0-0.2,0-0.3,0
			c0-0.1,0-0.2,0-0.3c-0.1,0-0.2,0-0.3,0c0-0.1,0-0.2,0-0.3c-0.1,0-0.2,0-0.3,0c0-0.1,0-0.2,0-0.3c-0.1,0-0.2,0-0.3,0
			c0-0.1,0-0.2,0-0.3c-0.1,0-0.2,0-0.3,0c0-0.1,0-0.2,0-0.3c-0.1,0-0.2,0-0.3,0c0-0.1,0-0.2,0-0.3c-0.1,0-0.2,0-0.3,0
			c0-0.1,0-0.2,0-0.3c-0.1,0-0.2,0-0.3,0c0-0.1,0-0.2,0-0.3c-0.1,0-0.2,0-0.3,0c0-0.1,0-0.2,0-0.3c-0.1,0-0.2,0-0.3,0
			c0-0.1,0-0.2,0-0.3c-0.1,0-0.2,0-0.3,0c0-0.1,0-0.2,0-0.3c-0.1,0-0.2,0-0.3,0c0-0.1,0-0.2,0-0.3c-0.1,0-0.2,0-0.3,0
			c0-0.1,0-0.2,0-0.3c-0.1,0-0.2,0-0.3,0c0-0.1,0-0.2,0-0.3c-0.1,0-0.2,0-0.3,0c0-0.1,0-0.2,0-0.3c-17.8,0.6-35.5,1.5-53.3,2.4
			c0.2-56.9,0.4-113.7,0.6-170.6c-0.1,0-0.2,0-0.3,0c0-0.1,0-0.2,0-0.3c-0.1,0-0.2,0-0.3,0c0-0.1,0-0.2,0-0.3c-0.1,0-0.2,0-0.3,0
			c0-0.1,0-0.2,0-0.3c-0.1,0-0.2,0-0.3,0c0-0.1,0-0.2,0-0.3c-0.1,0-0.2,0-0.3,0c0-0.1,0-0.2,0-0.3c-0.1,0-0.2,0-0.3,0
			c0-0.1,0-0.2,0-0.3c-0.1,0-0.2,0-0.3,0c0-0.1,0-0.2,0-0.3c-0.1,0-0.2,0-0.3,0c0-0.1,0-0.2,0-0.3c-0.1,0-0.2,0-0.3,0
			c0-0.1,0-0.2,0-0.3c-0.1,0-0.2,0-0.3,0c0-0.1,0-0.2,0-0.3c-0.1,0-0.2,0-0.3,0c0-0.1,0-0.2,0-0.3c-0.1,0-0.2,0-0.3,0
			c0-0.1,0-0.2,0-0.3c-0.1,0-0.2,0-0.3,0c0-0.1,0-0.2,0-0.3c-0.1,0-0.2,0-0.3,0c0-0.1,0-0.2,0-0.3c-0.1,0-0.2,0-0.3,0
			c0-0.1,0-0.2,0-0.3c-0.1,0-0.2,0-0.3,0c0-0.1,0-0.2,0-0.3c-0.1,0-0.2,0-0.3,0c0-0.1,0-0.2,0-0.3c-0.1,0-0.2,0-0.3,0
			c0-0.1,0-0.2,0-0.3c-0.1,0-0.2,0-0.3,0c0-0.1,0-0.2,0-0.3c-0.1,0-0.2,0-0.3,0c0-0.1,0-0.2,0-0.3c-0.1,0-0.2,0-0.3,0
			c0-0.1,0-0.2,0-0.3c-0.1,0-0.2,0-0.3,0c0-0.1,0-0.2,0-0.3c-0.1,0-0.2,0-0.3,0c0-0.1,0-0.2,0-0.3c-0.1,0-0.2,0-0.3,0
			c0-0.1,0-0.2,0-0.3c-0.1,0-0.2,0-0.3,0c0-0.1,0-0.2,0-0.3c-0.1,0-0.2,0-0.3,0c0-0.1,0-0.2,0-0.3c-0.1,0-0.2,0-0.3,0
			c0-0.1,0-0.2,0-0.3c-0.1,0-0.2,0-0.3,0c0-0.1,0-0.2,0-0.3c-0.1,0-0.2,0-0.3,0c0-0.1,0-0.2,0-0.3c-0.1,0-0.2,0-0.3,0
			c0-0.1,0-0.2,0-0.3c-0.1,0-0.2,0-0.3,0c0-0.1,0-0.2,0-0.3c-0.1,0-0.2,0-0.3,0c0-0.1,0-0.2,0-0.3c-0.1,0-0.2,0-0.3,0
			c0-0.1,0-0.2,0-0.3c-0.1,0-0.2,0-0.3,0c0-0.1,0-0.2,0-0.3c-0.1,0-0.2,0-0.3,0c0-0.1,0-0.2,0-0.3c-0.1,0-0.2,0-0.3,0
			c0-0.1,0-0.2,0-0.3c-0.1,0-0.2,0-0.3,0c0-0.1,0-0.2,0-0.3c-0.1,0-0.2,0-0.3,0c0-0.1,0-0.2,0-0.3c-0.1,0-0.2,0-0.3,0
			c0-0.1,0-0.2,0-0.3c-0.1,0-0.2,0-0.3,0c0-0.1,0-0.2,0-0.3c-0.1,0-0.2,0-0.3,0c0-0.1,0-0.2,0-0.3c-0.1,0-0.2,0-0.3,0
			c0-0.1,0-0.2,0-0.3c-0.1,0-0.2,0-0.3,0c0-0.1,0-0.2,0-0.3c-0.1,0-0.2,0-0.3,0c0-0.1,0-0.2,0-0.3c-0.1,0-0.2,0-0.3,0
			c0-0.1,0-0.2,0-0.3c-0.1,0-0.2,0-0.3,0c0-0.1,0-0.2,0-0.3c-0.1,0-0.2,0-0.3,0c0-0.1,0-0.2,0-0.3c-0.1,0-0.2,0-0.3,0
			c0-0.1,0-0.2,0-0.3c-0.1,0-0.2,0-0.3,0c0-0.1,0-0.2,0-0.3c-0.1,0-0.2,0-0.3,0c0-0.1,0-0.2,0-0.3c-0.1,0-0.2,0-0.3,0
			c0-0.1,0-0.2,0-0.3c-13.8,0-27.6,0-41.4,0c-0.3,73.8-0.6,147.6-0.9,221.4c0.1,0,0.2,0,0.3,0c0,0.1,0,0.2,0,0.3c0.1,0,0.2,0,0.3,0
			c0,0.1,0,0.2,0,0.3c0.1,0,0.2,0,0.3,0c0,0.1,0,0.2,0,0.3c0.1,0,0.2,0,0.3,0c0,0.1,0,0.2,0,0.3c0.1,0,0.2,0,0.3,0
			c0,0.1,0,0.2,0,0.3c0.1,0,0.2,0,0.3,0c0,0.1,0,0.2,0,0.3c0.1,0,0.2,0,0.3,0c0,0.1,0,0.2,0,0.3c0.1,0,0.2,0,0.3,0
			c0,0.1,0,0.2,0,0.3c0.1,0,0.2,0,0.3,0c0,0.1,0,0.2,0,0.3c0.1,0,0.2,0,0.3,0c0,0.1,0,0.2,0,0.3c0.1,0,0.2,0,0.3,0
			c0,0.1,0,0.2,0,0.3c0.1,0,0.2,0,0.3,0c0,0.1,0,0.2,0,0.3c0.1,0,0.2,0,0.3,0c0,0.1,0,0.2,0,0.3c0.1,0,0.2,0,0.3,0
			c0,0.1,0,0.2,0,0.3c0.1,0,0.2,0,0.3,0c0,0.1,0,0.2,0,0.3c0.1,0,0.2,0,0.3,0c0,0.1,0,0.2,0,0.3c0.1,0,0.2,0,0.3,0
			c0,0.1,0,0.2,0,0.3c0.1,0,0.2,0,0.3,0c0,0.1,0,0.2,0,0.3c0.1,0,0.2,0,0.3,0c0,0.1,0,0.2,0,0.3c0.1,0,0.2,0,0.3,0
			c0,0.1,0,0.2,0,0.3c0.1,0,0.2,0,0.3,0c0,0.1,0,0.2,0,0.3c0.1,0,0.2,0,0.3,0c0,0.1,0,0.2,0,0.3c0.1,0,0.2,0,0.3,0
			c0,0.1,0,0.2,0,0.3c0.1,0,0.2,0,0.3,0c0,0.1,0,0.2,0,0.3c0.1,0,0.2,0,0.3,0c0,0.1,0,0.2,0,0.3c0.1,0,0.2,0,0.3,0
			c0,0.1,0,0.2,0,0.3c0.1,0,0.2,0,0.3,0c0,0.1,0,0.2,0,0.3c0.1,0,0.2,0,0.3,0c0,0.1,0,0.2,0,0.3c0.1,0,0.2,0,0.3,0
			c0,0.1,0,0.2,0,0.3c0.1,0,0.2,0,0.3,0c0,0.1,0,0.2,0,0.3c0.1,0,0.2,0,0.3,0c0,0.1,0,0.2,0,0.3c0.1,0,0.2,0,0.3,0
			c0,0.1,0,0.2,0,0.3c0.1,0,0.2,0,0.3,0c0,0.1,0,0.2,0,0.3c0.1,0,0.2,0,0.3,0c0,0.1,0,0.2,0,0.3c0.1,0,0.2,0,0.3,0
			c0,0.1,0,0.2,0,0.3c0.1,0,0.2,0,0.3,0c0,0.1,0,0.2,0,0.3c0.1,0,0.2,0,0.3,0c0,0.1,0,0.2,0,0.3c0.1,0,0.2,0,0.3,0
			c0,0.1,0,0.2,0,0.3c0.1,0,0.2,0,0.3,0c0,0.1,0,0.2,0,0.3c0.1,0,0.2,0,0.3,0c0,0.1,0,0.2,0,0.3c0.1,0,0.2,0,0.3,0
			c0,0.1,0,0.2,0,0.3c0.1,0,0.2,0,0.3,0c0,0.1,0,0.2,0,0.3c0.1,0,0.2,0,0.3,0c0,0.1,0,0.2,0,0.3c0.1,0,0.2,0,0.3,0
			c0,0.1,0,0.2,0,0.3c0.1,0,0.2,0,0.3,0c0,0.1,0,0.2,0,0.3c0.1,0,0.2,0,0.3,0c0,0.1,0,0.2,0,0.3c0.1,0,0.2,0,0.3,0
			c0,0.1,0,0.2,0,0.3c0.1,0,0.2,0,0.3,0c0,0.1,0,0.2,0,0.3c0.1,0,0.2,0,0.3,0c0,0.1,0,0.2,0,0.3c0.1,0,0.2,0,0.3,0
			c0,0.1,0,0.2,0,0.3c0.1,0,0.2,0,0.3,0c0,0.1,0,0.2,0,0.3c36.6-3.1,73.3-5.5,110-7c0-10.2,0.1-20.4,0.1-30.6c-0.1,0-0.2,0-0.3,0
			C445.5,235.1,445.5,235,445.5,234.9z"/>
	</g>
	<g>
		<path class="st0" d="M24.1,36.4c17.3,0,34.6-0.1,52-0.1C89.4,86.9,102.6,136,115.9,184c0.3,0,0.5-0.1,0.8-0.1
			c0.1-49.2,0.3-98.5,0.4-147.7c12.3,0,24.6-0.1,36.9-0.1c-0.3,80.3-0.6,160.7-0.9,241c-14.1,2.1-28.3,4.4-42.4,6.8
			c-16.3-57.5-32.7-116.8-49.1-178.3c-0.3,0-0.5,0-0.8,0c-0.1,62.4-0.2,124.8-0.2,187.3c-12.2,2.3-24.4,4.7-36.6,7.2
			C24.1,212.2,24.1,124.3,24.1,36.4z"/>
		<path class="st0" d="M184.8,36c37.7-0.1,75.3-0.1,113-0.2c0,10.6-0.1,21.3-0.1,31.9c-23.9,0.4-47.7,0.8-71.6,1.2
			c-0.1,20.4-0.2,40.7-0.3,61.1c19-1,37.9-1.8,56.9-2.6c0,10.7-0.1,21.4-0.1,32.1c-19,1.1-37.9,2.2-56.9,3.5
			c-0.1,23.7-0.2,47.3-0.3,71c23.8-2.5,47.7-4.7,71.6-6.7c0,10.6-0.1,21.3-0.1,31.9c-37.7,3.6-75.4,8-113,13.2
			C184.2,193.8,184.5,114.9,184.8,36z"/>
		<path class="st0" d="M321.6,35.8c13.8,0,27.6,0,41.4,0c-0.2,62.4-0.5,124.7-0.7,187.1c22.8-1.4,45.6-2.4,68.4-3.3
			c0,10.2-0.1,20.4-0.1,30.6c-36.7,1.6-73.4,3.9-110,7C320.9,183.4,321.2,109.6,321.6,35.8z"/>
		<path class="st0" d="M459,238.4c-10.3-8.9-15.5-22.1-15.4-39.4c0-4.1,0-8.2,0-12.2c13.1-0.3,26.2-0.6,39.3-0.8c0,4.9,0,9.7,0,14.6
			c0,13.8,7.2,20.5,21.5,20.3c7.1-0.1,12.4-1.8,16.1-5.2c3.7-3.4,5.5-8.8,5.5-16.3c0-8.9-2.5-16.7-7.6-23.5
			c-5-6.7-14.4-14.8-27.9-24.2c-17.1-12-29-22.8-35.8-32.6c-6.8-9.8-10.1-20.9-10.1-33.3c0-16.9,5.3-30,15.9-39.3
			c10.6-9.3,25.9-13.9,46-13.9c19.8,0,34.8,4.6,45,13.8c10.2,9.2,15.3,22.4,15.3,39.6c0,2.9,0,5.9,0,8.8c-13.1,0-26.2-0.1-39.2,0
			c0-3.6,0-7.3,0-10.9c0-7.3-1.8-12.6-5.3-15.9c-3.5-3.3-8.7-5-15.4-5c-13.8,0-20.7,6.8-20.8,20.4c0,7.7,2.6,14.9,7.7,21.5
			c5.1,6.7,14.5,14.7,28.1,24.1c17.4,12.1,29.3,23.1,35.9,33.1c6.6,9.9,9.8,21.6,9.8,34.9c0,17.4-5.3,30.7-16.1,39.9
			c-10.7,9.3-26.3,13.9-46.8,14.2C484.6,251.5,469.3,247.3,459,238.4z"/>
		<path class="st0" d="M591.2,35.7c36.5,0,73.1,0,109.6,0.1c0,10.3,0.1,20.7,0.1,31c-22.7-0.2-45.5-0.4-68.2-0.5
			c0,19.9,0.1,39.7,0.1,59.6c17.9,0.3,35.7,0.6,53.6,1.1c0,10.3,0.1,20.6,0.1,30.9c-17.9-0.6-35.7-1.1-53.6-1.4
			c0.1,31.1,0.1,62.1,0.2,93.2c-13.9-0.5-27.8-0.9-41.6-1.2C591.4,177.5,591.3,106.6,591.2,35.7z"/>
		<path class="st0" d="M720.8,35.8c13.8,0,27.6,0,41.4,0c0.3,63.4,0.5,126.7,0.8,190.1c22.8,1.7,45.5,3.7,68.2,5.9
			c0,10.9,0.1,21.8,0.1,32.6c-36.5-4.2-73.2-7.5-109.8-10.1C721.3,181.5,721.1,108.6,720.8,35.8z"/>
		<path class="st0" d="M850.3,35.9c13.8,0,27.6,0,41.4,0.1c0.3,78.7,0.6,157.4,1,236.1c-13.8-1.9-27.6-3.7-41.4-5.4
			C851,189.8,850.7,112.9,850.3,35.9z"/>
		<path class="st0" d="M959.5,156.4c-15.3-41.3-30.6-81.4-45.9-120.4c14.6,0,29.1,0.1,43.7,0.1c9.4,26.5,18.7,53.4,28.1,80.9
			c0.3,0,0.5,0,0.8,0c9.5-26.4,18.9-53.3,28.4-80.8c13.1,0,26.1,0.1,39.2,0.1c-15.2,42.8-30.3,84.2-45.4,124.2
			c16,44.8,31.8,91.2,47.6,139.4c-14.4-2.9-28.8-5.8-43.3-8.5c-10-31.5-20.1-62.3-30.1-92.5c-0.3,0-0.5-0.1-0.8-0.1
			c-10.2,27.9-20.3,55.2-30.5,81.9c-13-2.1-26-4.1-39-6C928,236.5,943.7,197.1,959.5,156.4z"/>
	</g>
	<rect x="320.6" y="-673.1" class="st1" width="92.6" height="92.6"/>
	<rect x="420.6" y="-673.1" class="st0" width="92.6" height="92.6"/>
	<rect x="520.5" y="-673.1" class="st2" width="92.6" height="92.6"/>
	<rect x="320.6" y="-540.4" class="st3" width="92.6" height="92.6"/>
	<rect x="420.6" y="-540.4" class="st4" width="92.6" height="92.6"/>
	<rect x="520.5" y="-540.4" class="st5" width="92.6" height="92.6"/>
</g>
</svg>
